<svg xmlns="http://www.w3.org/2000/svg" width="28" height="21"><path d="M25.545 7.444a.283.283 0 0 1 .454.22v9.585a2.25 2.25 0 0 1-2.25 2.25H4.251a2.25 2.25 0 0 1-2.25-2.25V7.67a.28.28 0 0 1 .454-.22c1.05.815 2.443 1.851 7.224 5.324.989.722 2.657 2.24 4.321 2.23 1.673.015 3.375-1.536 4.326-2.23 4.781-3.473 6.169-4.513 7.219-5.33zM14 13.5c1.088.019 2.653-1.369 3.44-1.94 6.22-4.514 6.694-4.908 8.128-6.033.271-.21.43-.54.43-.886v-.89A2.25 2.25 0 0 0 23.75 1.5H4.251a2.25 2.25 0 0 0-2.25 2.25v.891c0 .346.16.67.431.885 1.435 1.12 1.909 1.52 8.128 6.032.787.572 2.352 1.96 3.44 1.94z" fill="#fff"/></svg>