<svg xmlns="http://www.w3.org/2000/svg" viewBox="0 0 64.823 75.612" height="285.776" width="245"><path fill="#ca2333" paint-order="markers stroke fill" d="M0 0h64.823v75.612H0z"/><g fill="#fff"><path d="M19.904 23.082l6.625 5.532 1.188-1.661h9.414l-4.664 6.497-.046.06-.01.017-.019-.017-.026-.014-.005-.005-.02-.021-3.08-2.575-6.603 9.205-2.778 3.87H44.92l-6.624-5.526-1.189 1.656h-9.413l4.663-6.492.046-.062.01-.015.02.015.025.016.005.005.021.02 3.08 2.57 6.602-9.204 2.778-3.87z" color="#000"/><path style="text-align:center" d="M25.219 48.898c-.46 0-.821.12-1.078.36-.255.241-.389.576-.407 1.007-.003.094-.005.242-.005.452 0 .205.002.356.005.447.018.437.153.774.407 1.011.255.236.614.355 1.078.355.299 0 .56-.054.781-.156.223-.105.397-.244.519-.423s.187-.377.193-.6a.093.093 0 0 0-.03-.076.107.107 0 0 0-.077-.03h-.488a.133.133 0 0 0-.09.03.202.202 0 0 0-.051.097c-.05.208-.138.356-.265.442-.125.086-.29.127-.492.127-.482 0-.732-.265-.753-.803a14.21 14.21 0 0 1-.005-.432c0-.187.002-.325.005-.416.021-.539.271-.808.753-.808.204 0 .369.042.492.128.125.085.215.232.265.44.013.048.03.079.05.098.02.018.05.031.091.031h.488c.028 0 .049-.013.072-.03.02-.02.035-.04.035-.068v-.01a1.097 1.097 0 0 0-.193-.6 1.245 1.245 0 0 0-.519-.42 1.849 1.849 0 0 0-.781-.153zm6.299 0c-.252 0-.47.039-.655.122a.975.975 0 0 0-.421.34.823.823 0 0 0-.148.482c0 .189.039.345.117.469a.905.905 0 0 0 .344.308c.153.085.356.166.615.24.273.08.48.147.616.203a.83.83 0 0 1 .304.193c.068.075.107.17.107.285a.483.483 0 0 1-.215.416c-.14.1-.354.153-.638.153-.267 0-.473-.05-.615-.153a.609.609 0 0 1-.26-.366c-.023-.067-.067-.1-.127-.1h-.244c-.03 0-.055.009-.076.028a.106.106 0 0 0-.03.072c.007.166.06.32.168.463.106.143.259.257.462.345.203.088.445.132.722.132.41 0 .734-.093.975-.269a.87.87 0 0 0 .36-.736.824.824 0 0 0-.123-.463.92.92 0 0 0-.364-.3 3.893 3.893 0 0 0-.671-.243 5.54 5.54 0 0 1-.57-.194.772.772 0 0 1-.288-.198.435.435 0 0 1-.092-.29c0-.173.069-.307.204-.396.133-.088.313-.132.543-.132.211 0 .387.049.528.143.141.095.224.21.244.355.01.034.027.06.05.076.025.018.05.026.077.026h.248a.1.1 0 0 0 .077-.03.1.1 0 0 0 .03-.077.784.784 0 0 0-.157-.416 1.099 1.099 0 0 0-.421-.351 1.54 1.54 0 0 0-.676-.137zm14.553 0c-.419 0-.752.115-1 .351-.248.234-.378.584-.391 1.04a13.63 13.63 0 0 0-.005.423c0 .184.002.33.005.43.013.466.137.812.375 1.043.24.23.58.345 1.016.345.438 0 .774-.114 1.012-.345.237-.23.362-.577.375-1.042.007-.202.01-.348.01-.43 0-.089-.003-.228-.01-.423-.013-.457-.14-.807-.385-1.04-.246-.237-.58-.352-1.002-.352zm-28.543.05a.125.125 0 0 0-.092.036.116.116 0 0 0-.03.086v.356a.122.122 0 0 0 .122.127h1.65l-1.747 2.256c-.02.026-.04.05-.056.077a.213.213 0 0 0-.02.105v.361c0 .038.009.069.03.091a.12.12 0 0 0 .092.036h2.525a.121.121 0 0 0 .091-.036.122.122 0 0 0 .031-.086v-.366c0-.037-.01-.065-.03-.086a.132.132 0 0 0-.092-.03h-1.707l1.707-2.271a.262.262 0 0 0 .065-.178v-.356a.11.11 0 0 0-.035-.086.125.125 0 0 0-.091-.036zm3.307 0a.111.111 0 0 0-.087.036.123.123 0 0 0-.035.086v3.287c0 .034.013.064.035.086a.113.113 0 0 0 .087.036H23.1a.125.125 0 0 0 .09-.036.106.106 0 0 0 .036-.086v-.344a.112.112 0 0 0-.035-.088.13.13 0 0 0-.091-.034h-1.697v-.91h1.544a.125.125 0 0 0 .09-.036.106.106 0 0 0 .037-.087v-.32a.113.113 0 0 0-.036-.086.125.125 0 0 0-.091-.036h-1.544v-.882h1.656a.132.132 0 0 0 .091-.036.11.11 0 0 0 .036-.086v-.342a.11.11 0 0 0-.036-.086.125.125 0 0 0-.09-.036zm6.325 0a.129.129 0 0 0-.093.036.118.118 0 0 0-.03.086v.382c0 .036.012.067.037.091a.119.119 0 0 0 .086.036h.93v2.778a.119.119 0 0 0 .122.122h.476a.106.106 0 0 0 .086-.036.115.115 0 0 0 .03-.086V49.58h.93a.125.125 0 0 0 .092-.036.124.124 0 0 0 .035-.09v-.383a.11.11 0 0 0-.035-.086.125.125 0 0 0-.091-.036zm6.182 0a.12.12 0 0 0-.086.031c-.023.021-.031.05-.031.086v.199c0 .034.008.065.03.086.022.023.053.03.087.03h.97v2.982c0 .034.013.06.036.081a.106.106 0 0 0 .081.036h.244a.125.125 0 0 0 .086-.036.106.106 0 0 0 .036-.08V49.38h.964c.034 0 .065-.008.086-.031.023-.021.031-.052.031-.086v-.199c0-.037-.01-.065-.03-.086-.02-.02-.05-.03-.087-.03zm3.184 0a.11.11 0 0 0-.08.031.121.121 0 0 0-.032.086v2.054c0 .473.12.827.356 1.061.236.234.572.35 1.006.35.434 0 .768-.116 1.002-.35.232-.234.35-.588.35-1.061v-2.054a.111.111 0 0 0-.036-.086.108.108 0 0 0-.082-.03h-.244a.117.117 0 0 0-.086.03.114.114 0 0 0-.029.086v2.063c-.002.327-.076.57-.23.732-.152.162-.365.244-.645.244-.282 0-.502-.078-.655-.24-.152-.16-.229-.406-.229-.736v-2.063a.111.111 0 0 0-.036-.086c-.02-.02-.048-.03-.086-.03zm3.557 0a.095.095 0 0 0-.076.031c-.021.021-.031.05-.031.086v3.297c0 .034.01.06.03.081.02.023.043.036.077.036h1.169c.338 0 .611-.05.818-.148a.926.926 0 0 0 .452-.445c.095-.202.144-.459.15-.779.006-.1.007-.236.007-.401a8.34 8.34 0 0 0-.006-.39c-.007-.457-.125-.8-.35-1.026-.226-.228-.59-.342-1.097-.342zm3.47 0c-.035 0-.061.01-.082.031a.114.114 0 0 0-.031.082v3.301c0 .034.011.06.03.081a.106.106 0 0 0 .082.036h.254c.034 0 .06-.013.081-.036a.106.106 0 0 0 .036-.08V49.06c0-.038-.01-.062-.031-.082a.118.118 0 0 0-.086-.03zm2.519.361c.27 0 .484.085.645.249.161.166.25.416.263.753.009.195.012.326.012.401 0 .067-.003.205-.012.407-.013.334-.102.583-.263.746-.16.162-.375.244-.645.244-.272 0-.49-.082-.65-.244-.161-.163-.25-.412-.259-.746a13.388 13.388 0 0 1 0-.808c.01-.337.096-.587.259-.753.162-.164.382-.249.65-.249zm-5.623.05h.75c.35 0 .6.079.754.235.152.156.23.406.239.741.006.195.01.317.01.37 0 .053-.004.181-.01.383-.009.239-.041.424-.103.564a.59.59 0 0 1-.299.309c-.14.066-.328.097-.564.097h-.777z"/></g></svg>