<svg xmlns="http://www.w3.org/2000/svg" viewBox="0 0 64.823 83.7" height="316.348" width="245"><path fill="#5f991f" paint-order="markers stroke fill" d="M0 0h64.823v83.7H0z"/><g fill="#fff"><path d="M18.045 24.938l7.61 6.354 1.364-1.908h10.813l-5.357 7.463-.052.07-.011.018-.023-.019-.03-.017-.005-.005-.024-.025-3.537-2.957-7.585 10.574-3.19 4.446h28.76l-7.609-6.349-1.365 1.903H26.991l5.357-7.458.053-.07.01-.018.023.017.03.019.006.005.024.023 3.536 2.952 7.585-10.572 3.191-4.446z" color="#000"/><path style="text-align:center" d="M24.15 54.591c-.53 0-.944.138-1.239.415-.293.276-.446.66-.466 1.156-.004.108-.006.278-.006.519 0 .235.002.409.006.513.02.502.175.889.466 1.162.293.27.706.407 1.238.407.344 0 .644-.062.898-.18.256-.12.456-.28.596-.485a1.26 1.26 0 0 0 .222-.69.107.107 0 0 0-.035-.087.123.123 0 0 0-.088-.034h-.56a.152.152 0 0 0-.105.034.232.232 0 0 0-.058.112c-.057.24-.158.409-.304.508-.144.099-.334.146-.566.146-.552 0-.84-.305-.864-.923-.004-.112-.006-.28-.006-.496 0-.215.002-.374.006-.478.024-.618.312-.928.864-.928.236 0 .424.048.566.147.144.097.247.267.304.506.015.054.034.09.058.112.023.02.058.036.105.036h.56c.032 0 .056-.015.082-.036.024-.022.041-.045.041-.076v-.012a1.26 1.26 0 0 0-.222-.689 1.43 1.43 0 0 0-.596-.483 2.124 2.124 0 0 0-.898-.176zm7.235 0c-.29 0-.54.045-.753.14a1.12 1.12 0 0 0-.483.39.946.946 0 0 0-.17.555.99.99 0 0 0 .134.538c.088.14.22.26.396.355.176.097.409.19.706.274.314.093.55.17.708.233.155.064.27.137.349.223a.472.472 0 0 1 .123.326.555.555 0 0 1-.247.478c-.162.116-.407.176-.733.176-.307 0-.544-.058-.706-.176a.699.699 0 0 1-.299-.42c-.026-.076-.076-.115-.146-.115h-.28a.123.123 0 0 0-.087.033.121.121 0 0 0-.036.082c.01.19.071.368.194.532.122.165.297.296.53.396.234.101.512.152.83.152.47 0 .844-.107 1.12-.309.274-.203.413-.483.415-.845a.947.947 0 0 0-.142-.533 1.056 1.056 0 0 0-.419-.343 4.472 4.472 0 0 0-.77-.28 6.364 6.364 0 0 1-.654-.222.886.886 0 0 1-.333-.228.5.5 0 0 1-.104-.333c0-.2.078-.352.233-.455.153-.101.36-.151.624-.151.243 0 .444.056.607.164.162.108.257.24.28.407.01.04.031.07.058.088.028.02.057.03.087.03h.286a.114.114 0 0 0 .088-.036.114.114 0 0 0 .035-.088.901.901 0 0 0-.18-.478 1.262 1.262 0 0 0-.484-.403 1.768 1.768 0 0 0-.777-.157zm16.717 0c-.482 0-.865.133-1.148.404-.286.268-.435.67-.45 1.195-.004.112-.006.272-.006.485 0 .211.002.38.006.495.015.534.156.932.431 1.197.274.265.665.396 1.167.396s.889-.131 1.161-.396c.273-.265.417-.663.432-1.197.007-.232.01-.4.01-.495 0-.1-.003-.261-.01-.485-.015-.525-.16-.927-.443-1.195-.282-.271-.666-.404-1.15-.404zm-32.787.058a.144.144 0 0 0-.105.041.134.134 0 0 0-.035.1v.408a.14.14 0 0 0 .14.146h1.897l-2.007 2.591c-.024.03-.047.056-.065.088a.245.245 0 0 0-.023.122v.414c0 .043.01.078.035.105a.137.137 0 0 0 .105.04h2.9a.14.14 0 0 0 .105-.04.14.14 0 0 0 .036-.1v-.42c0-.042-.011-.074-.036-.098a.151.151 0 0 0-.104-.036h-1.962l1.962-2.608a.302.302 0 0 0 .074-.204v-.409a.127.127 0 0 0-.04-.099.144.144 0 0 0-.105-.04zm3.799 0a.128.128 0 0 0-.1.041.141.141 0 0 0-.04.1v3.775c0 .039.015.072.04.099a.13.13 0 0 0 .1.04h2.603a.144.144 0 0 0 .104-.04.122.122 0 0 0 .041-.1v-.395a.128.128 0 0 0-.04-.101.15.15 0 0 0-.105-.04h-1.95v-1.045h1.774a.144.144 0 0 0 .105-.041.122.122 0 0 0 .04-.099v-.368a.13.13 0 0 0-.04-.099.144.144 0 0 0-.105-.04h-1.774V55.32h1.903a.152.152 0 0 0 .105-.04.127.127 0 0 0 .04-.1v-.392a.127.127 0 0 0-.04-.099.144.144 0 0 0-.105-.04zm7.265 0a.148.148 0 0 0-.106.041.136.136 0 0 0-.034.1v.438c0 .041.013.076.041.105.026.026.06.04.1.04h1.067v3.192c0 .039.013.072.04.099a.137.137 0 0 0 .1.04h.547a.122.122 0 0 0 .1-.04.132.132 0 0 0 .035-.1v-3.19h1.068a.144.144 0 0 0 .104-.041.142.142 0 0 0 .041-.105v-.439a.127.127 0 0 0-.04-.099.144.144 0 0 0-.105-.04zm7.101 0a.137.137 0 0 0-.099.036c-.026.024-.035.056-.035.099v.227c0 .04.01.075.035.1.024.025.06.035.1.035h1.114v3.424c0 .04.015.07.041.094a.121.121 0 0 0 .093.04h.28a.143.143 0 0 0 .1-.04.121.121 0 0 0 .04-.094v-3.424h1.108c.039 0 .074-.01.099-.036.026-.024.035-.06.035-.099v-.227c0-.043-.011-.075-.035-.1-.023-.024-.056-.035-.1-.035zm3.658 0a.127.127 0 0 0-.093.036.139.139 0 0 0-.036.099v2.358c0 .543.138.95.41 1.22.27.268.656.4 1.155.4.498 0 .881-.132 1.15-.4.267-.27.402-.677.402-1.22v-2.358a.128.128 0 0 0-.041-.1.124.124 0 0 0-.094-.035h-.28a.134.134 0 0 0-.099.036.13.13 0 0 0-.033.099v2.369c-.002.375-.088.654-.264.84-.175.187-.42.28-.741.28-.325 0-.577-.09-.753-.274-.175-.185-.263-.467-.263-.846v-2.37a.128.128 0 0 0-.04-.098c-.025-.025-.057-.036-.1-.036zm4.086 0a.109.109 0 0 0-.088.036c-.025.024-.036.056-.036.099v3.786c0 .04.011.07.036.094a.107.107 0 0 0 .088.04h1.342c.388 0 .702-.057.94-.17.235-.111.408-.281.518-.51.11-.232.167-.527.174-.895.006-.116.007-.271.007-.461a9.58 9.58 0 0 0-.007-.449c-.007-.524-.144-.918-.401-1.178-.26-.261-.678-.392-1.26-.392zm3.984 0c-.039 0-.069.011-.093.036a.131.131 0 0 0-.036.093v3.792c0 .04.013.07.036.094a.121.121 0 0 0 .093.04h.291c.04 0 .07-.014.094-.04a.121.121 0 0 0 .04-.094v-3.792c0-.043-.01-.071-.035-.093a.136.136 0 0 0-.099-.036zm2.894.415c.31 0 .557.097.742.285.185.19.287.478.302.865.01.224.013.375.013.461 0 .077-.004.235-.013.467-.015.384-.117.67-.302.857-.185.187-.432.28-.742.28-.311 0-.562-.093-.747-.28-.184-.187-.285-.473-.296-.857a15.379 15.379 0 0 1-.006-.467c0-.198.002-.35.006-.461.01-.387.11-.674.296-.865.187-.188.44-.285.747-.285zm-6.458.058h.862c.402 0 .69.09.865.268.175.18.265.467.274.852.008.224.012.364.012.426 0 .06-.004.207-.012.438-.009.275-.046.488-.117.648a.678.678 0 0 1-.344.355c-.16.077-.377.112-.648.112h-.892z"/></g></svg>