<svg xmlns="http://www.w3.org/2000/svg" viewBox="0 0 64.823 75.612" height="285.776" width="245"><path fill="#edeeef" paint-order="markers stroke fill" d="M0 0h64.823v75.612H0z"/><g fill="#214478"><path d="M15.153 17.489l9.141 7.633 1.64-2.292h12.99l-6.436 8.965-.063.083-.013.023-.027-.023-.036-.02-.007-.007-.029-.029-4.248-3.553-9.112 12.703-3.833 5.34h34.55l-9.14-7.626-1.64 2.286H25.9l6.436-8.959.062-.085.014-.02.027.02.036.022.006.007.03.027 4.248 3.546 9.111-12.7 3.834-5.341z" color="#000"/><path d="M22.486 53.112c-.635 0-1.133.166-1.487.498-.352.332-.536.794-.56 1.388-.005.13-.008.334-.008.624 0 .282.003.49.007.616.025.604.211 1.068.56 1.396.353.325.849.489 1.488.489a2.55 2.55 0 0 0 1.079-.216c.307-.143.547-.336.716-.583.168-.247.258-.52.266-.828a.128.128 0 0 0-.042-.105.147.147 0 0 0-.106-.04h-.673a.183.183 0 0 0-.125.04.278.278 0 0 0-.07.135c-.07.287-.19.49-.365.61-.173.119-.402.175-.68.175-.664 0-1.01-.366-1.038-1.108a19.608 19.608 0 0 1-.007-.597c0-.258.002-.449.007-.574.029-.743.374-1.115 1.038-1.115.283 0 .51.058.68.177.172.117.296.32.365.608.018.065.04.108.07.135.027.024.07.042.125.042h.673c.039 0 .068-.018.1-.042.028-.027.048-.054.048-.092v-.014a1.513 1.513 0 0 0-.266-.828 1.717 1.717 0 0 0-.716-.58c-.305-.142-.666-.211-1.079-.211zm8.692 0c-.348 0-.648.053-.904.168a1.345 1.345 0 0 0-.58.469 1.136 1.136 0 0 0-.205.666c0 .26.054.475.162.646.105.168.264.312.475.426.21.117.491.229.848.33.377.112.662.204.85.28.186.076.325.164.42.267a.567.567 0 0 1 .148.393c0 .246-.101.435-.296.574-.196.139-.49.21-.882.21-.368 0-.653-.069-.848-.21-.197-.141-.316-.31-.359-.505-.031-.092-.092-.139-.175-.139h-.336a.147.147 0 0 0-.106.04.146.146 0 0 0-.042.1c.01.228.085.441.233.638.146.198.357.355.637.476s.615.182.996.182c.565 0 1.014-.128 1.346-.37.33-.245.496-.581.498-1.017-.002-.26-.059-.473-.17-.639a1.27 1.27 0 0 0-.503-.413 5.372 5.372 0 0 0-.927-.336 7.645 7.645 0 0 1-.785-.267 1.065 1.065 0 0 1-.399-.274.6.6 0 0 1-.126-.399c0-.24.095-.424.28-.547.185-.121.434-.182.75-.182.292 0 .534.067.73.198.194.13.309.289.336.489a.19.19 0 0 0 .07.105c.033.025.069.036.105.036h.343a.137.137 0 0 0 .105-.043.137.137 0 0 0 .043-.105 1.082 1.082 0 0 0-.218-.574 1.516 1.516 0 0 0-.58-.485c-.259-.126-.573-.188-.934-.188zm20.083 0c-.58 0-1.039.159-1.38.484-.343.323-.523.805-.54 1.436-.005.134-.007.327-.007.583 0 .253.002.455.006.594.018.642.189 1.12.519 1.438.33.319.798.476 1.402.476.603 0 1.067-.157 1.395-.476.327-.318.5-.796.518-1.438.009-.278.013-.48.013-.594 0-.121-.004-.314-.013-.583-.018-.63-.193-1.113-.532-1.436-.338-.325-.8-.484-1.381-.484zm-39.387.07a.173.173 0 0 0-.126.048.16.16 0 0 0-.042.12v.49a.169.169 0 0 0 .168.176h2.278l-2.411 3.113c-.028.036-.057.067-.077.105a.294.294 0 0 0-.028.146v.498c0 .052.011.094.041.126.03.033.076.05.127.05h3.484c.05 0 .095-.017.126-.05a.168.168 0 0 0 .043-.12v-.504c0-.051-.014-.09-.043-.119a.182.182 0 0 0-.126-.042h-2.356l2.356-3.134c.061-.07.09-.152.09-.244v-.492a.153.153 0 0 0-.05-.119.172.172 0 0 0-.125-.049zm4.563 0a.154.154 0 0 0-.119.048.17.17 0 0 0-.05.12v4.535c0 .047.019.087.05.119.031.033.072.05.119.05h3.127a.172.172 0 0 0 .125-.05.146.146 0 0 0 .05-.12v-.475a.154.154 0 0 0-.05-.12.18.18 0 0 0-.125-.048h-2.342v-1.256h2.13a.172.172 0 0 0 .127-.05.146.146 0 0 0 .049-.118v-.442a.156.156 0 0 0-.05-.119.172.172 0 0 0-.125-.05h-2.131V53.99h2.286c.051 0 .094-.02.125-.05a.153.153 0 0 0 .05-.119v-.47a.153.153 0 0 0-.05-.12.172.172 0 0 0-.125-.049zm8.728 0a.178.178 0 0 0-.128.048.163.163 0 0 0-.04.12v.527c0 .049.015.091.049.125.031.032.072.05.119.05h1.283v3.833a.164.164 0 0 0 .168.168h.657c.052 0 .09-.016.12-.05a.159.159 0 0 0 .042-.118V54.05h1.283a.172.172 0 0 0 .125-.049.17.17 0 0 0 .05-.125v-.528a.153.153 0 0 0-.05-.119.172.172 0 0 0-.125-.049zm8.53 0a.165.165 0 0 0-.119.042c-.031.029-.042.067-.042.119v.273c0 .047.011.09.042.12.03.03.072.042.12.042h1.338v4.114c0 .047.018.083.05.112.029.031.065.05.112.05h.336a.172.172 0 0 0 .12-.05.146.146 0 0 0 .049-.112v-4.114h1.33c.047 0 .09-.011.119-.043.031-.029.042-.072.042-.119v-.273c0-.052-.013-.09-.042-.12-.027-.028-.068-.042-.12-.042zm4.395 0a.152.152 0 0 0-.113.042.167.167 0 0 0-.042.119v2.833c0 .652.166 1.141.491 1.464.325.323.79.483 1.388.483.6 0 1.06-.16 1.382-.483.321-.323.482-.812.482-1.464v-2.833a.154.154 0 0 0-.049-.12.149.149 0 0 0-.112-.042h-.336c-.05 0-.09.014-.12.043a.157.157 0 0 0-.04.119v2.846c-.002.451-.105.785-.316 1.01-.21.224-.505.336-.89.336-.39 0-.694-.108-.904-.33-.211-.222-.317-.56-.317-1.016v-2.846a.154.154 0 0 0-.05-.12c-.028-.028-.066-.042-.118-.042zm4.907 0a.13.13 0 0 0-.105.042c-.03.029-.043.067-.043.119v4.549c0 .047.014.083.043.112.027.031.058.05.105.05h1.613c.467 0 .844-.07 1.129-.205.282-.135.49-.339.623-.615.132-.278.2-.632.209-1.074.006-.14.009-.325.009-.554 0-.227-.003-.404-.01-.538-.008-.63-.172-1.104-.482-1.416-.311-.314-.814-.47-1.514-.47zm4.787 0a.149.149 0 0 0-.112.042.158.158 0 0 0-.043.112v4.556c0 .047.016.083.043.112.03.031.065.05.112.05h.35a.146.146 0 0 0 .112-.05.146.146 0 0 0 .05-.112v-4.556c0-.052-.014-.085-.043-.112a.163.163 0 0 0-.119-.043zm3.477.497c.372 0 .668.117.89.343.223.23.346.575.364 1.039.011.269.016.45.016.554 0 .092-.005.283-.016.56-.018.463-.141.806-.363 1.03-.223.225-.519.337-.891.337-.375 0-.675-.112-.897-.337-.222-.224-.343-.567-.357-1.03-.004-.138-.007-.329-.007-.56 0-.238.003-.42.007-.554.014-.464.132-.81.357-1.039.224-.226.527-.343.897-.343zm-7.759.07h1.036c.483 0 .828.107 1.039.323.21.215.319.56.33 1.023.009.269.013.437.013.51 0 .073-.004.25-.013.528-.011.33-.056.586-.142.778a.815.815 0 0 1-.412.427c-.193.092-.453.134-.779.134h-1.072z" style="text-align:center"/></g></svg>