<svg xmlns="http://www.w3.org/2000/svg" viewBox="0 0 64.823 92.492" height="349.578" width="245"><path fill="#bf4b01" paint-order="markers stroke fill" d="M0 0h64.823v92.492H0z"/><g fill="#fff"><path d="M19.904 31.523l6.625 5.531 1.188-1.661h9.414l-4.664 6.497-.046.06-.01.017-.019-.016-.026-.015-.005-.005-.02-.021-3.08-2.575-6.603 9.206-2.778 3.87H44.92l-6.624-5.527-1.189 1.657h-9.413l4.663-6.493.046-.062.01-.014.02.014.025.017.005.005.021.019 3.08 2.57 6.602-9.204 2.778-3.87z" color="#000"/><path d="M25.219 57.338c-.46 0-.821.12-1.078.361-.255.24-.389.576-.407 1.006-.003.095-.005.243-.005.452 0 .205.002.356.005.447.018.438.153.774.407 1.012.255.235.614.354 1.078.354.299 0 .56-.054.781-.156.223-.104.397-.244.519-.423s.187-.377.193-.6a.093.093 0 0 0-.03-.076.107.107 0 0 0-.077-.03h-.488a.133.133 0 0 0-.09.03.202.202 0 0 0-.051.098c-.05.208-.138.356-.265.442-.125.086-.29.126-.492.126-.482 0-.732-.264-.753-.803a14.21 14.21 0 0 1-.005-.432c0-.187.002-.325.005-.416.021-.538.271-.808.753-.808.204 0 .369.042.492.128.125.085.215.233.265.44.013.048.03.079.05.098.02.018.05.031.091.031h.488c.028 0 .049-.013.072-.03.02-.02.035-.04.035-.067v-.01a1.097 1.097 0 0 0-.193-.6 1.245 1.245 0 0 0-.519-.42 1.849 1.849 0 0 0-.781-.154zm6.299 0c-.252 0-.47.04-.655.122a.975.975 0 0 0-.422.34.823.823 0 0 0-.147.483c0 .188.039.344.117.468a.905.905 0 0 0 .344.309c.153.084.356.166.615.239.273.081.48.148.616.203a.83.83 0 0 1 .304.193c.068.075.107.171.107.285a.483.483 0 0 1-.215.416c-.14.1-.354.153-.638.153-.267 0-.473-.05-.615-.153a.609.609 0 0 1-.26-.366c-.023-.066-.067-.1-.127-.1h-.244c-.03 0-.055.01-.076.029a.106.106 0 0 0-.03.071c.007.166.06.32.168.464.106.143.259.256.462.344.203.088.445.132.722.132.41 0 .734-.093.975-.268a.87.87 0 0 0 .36-.737.824.824 0 0 0-.123-.463.92.92 0 0 0-.364-.3 3.893 3.893 0 0 0-.671-.243 5.54 5.54 0 0 1-.57-.193.772.772 0 0 1-.288-.199.435.435 0 0 1-.092-.289c0-.174.069-.307.204-.397.133-.087.313-.131.543-.131.211 0 .387.048.528.143.141.094.224.21.244.354.01.034.027.06.05.076.025.018.05.026.077.026h.248a.1.1 0 0 0 .077-.03.1.1 0 0 0 .03-.077.784.784 0 0 0-.157-.416 1.099 1.099 0 0 0-.421-.351 1.54 1.54 0 0 0-.676-.137zm14.553 0c-.419 0-.752.116-1 .352-.248.234-.378.583-.391 1.04a13.63 13.63 0 0 0-.005.423c0 .183.002.33.005.43.013.465.137.811.375 1.042.24.231.58.345 1.016.345.438 0 .774-.114 1.012-.345.237-.23.362-.577.375-1.042.007-.201.01-.348.01-.43 0-.088-.003-.228-.01-.423-.013-.457-.14-.806-.385-1.04-.246-.236-.58-.352-1.002-.352zm-28.543.05a.125.125 0 0 0-.092.037.116.116 0 0 0-.03.086v.356a.122.122 0 0 0 .122.126h1.65l-1.747 2.257c-.02.026-.04.049-.056.076a.213.213 0 0 0-.02.106v.36c0 .038.009.069.03.092a.12.12 0 0 0 .092.036h2.525a.121.121 0 0 0 .091-.036.122.122 0 0 0 .031-.086v-.366c0-.038-.01-.065-.03-.086a.132.132 0 0 0-.092-.031h-1.707l1.707-2.271a.262.262 0 0 0 .065-.177v-.356a.11.11 0 0 0-.035-.086.125.125 0 0 0-.091-.036zm3.307 0a.111.111 0 0 0-.087.037.123.123 0 0 0-.035.086v3.287c0 .034.013.063.035.086a.113.113 0 0 0 .087.036H23.1a.125.125 0 0 0 .09-.036.106.106 0 0 0 .036-.086v-.345a.112.112 0 0 0-.035-.088.13.13 0 0 0-.091-.034h-1.697v-.91h1.544a.125.125 0 0 0 .09-.036.106.106 0 0 0 .037-.086v-.32a.113.113 0 0 0-.036-.087.125.125 0 0 0-.091-.035h-1.544v-.883h1.656a.132.132 0 0 0 .091-.036.11.11 0 0 0 .036-.086v-.341a.11.11 0 0 0-.036-.086.125.125 0 0 0-.09-.036zm6.325 0a.129.129 0 0 0-.093.037.118.118 0 0 0-.03.086v.382c0 .035.012.066.037.09a.119.119 0 0 0 .086.037h.93v2.778a.119.119 0 0 0 .122.122h.476a.106.106 0 0 0 .086-.036.115.115 0 0 0 .03-.086V58.02h.93a.125.125 0 0 0 .092-.036.124.124 0 0 0 .035-.091v-.382a.11.11 0 0 0-.035-.086.125.125 0 0 0-.091-.036zm6.182 0a.12.12 0 0 0-.086.032c-.023.02-.031.048-.031.086v.198c0 .034.008.065.03.086.022.023.053.031.087.031h.97v2.981c0 .035.013.06.036.082a.106.106 0 0 0 .081.036h.244a.125.125 0 0 0 .086-.036.106.106 0 0 0 .036-.082v-2.98h.964c.034 0 .065-.009.086-.032.023-.02.031-.052.031-.086v-.198c0-.038-.01-.065-.03-.086-.02-.021-.05-.031-.087-.031zm3.184 0a.11.11 0 0 0-.08.032.121.121 0 0 0-.032.086v2.053c0 .473.12.827.356 1.061.236.235.572.35 1.006.35.434 0 .768-.115 1.002-.35.232-.234.35-.588.35-1.061v-2.053a.111.111 0 0 0-.036-.086.108.108 0 0 0-.082-.031h-.244a.117.117 0 0 0-.086.03.114.114 0 0 0-.029.087v2.063c-.002.326-.076.569-.23.731-.152.163-.365.244-.645.244-.282 0-.502-.078-.655-.239-.152-.16-.229-.406-.229-.736v-2.063a.111.111 0 0 0-.036-.086c-.02-.021-.048-.031-.086-.031zm3.557 0a.095.095 0 0 0-.076.032c-.021.02-.031.048-.031.086v3.296c0 .035.01.06.03.082.02.023.043.036.077.036h1.169c.338 0 .611-.05.818-.148a.926.926 0 0 0 .452-.446c.095-.201.144-.458.15-.778.006-.101.007-.236.007-.402a8.34 8.34 0 0 0-.006-.39c-.007-.457-.125-.8-.35-1.026-.226-.227-.59-.341-1.097-.341zm3.47 0c-.035 0-.061.01-.082.032a.114.114 0 0 0-.031.08v3.302c0 .035.011.06.03.082a.106.106 0 0 0 .082.036h.254c.034 0 .06-.013.081-.036a.106.106 0 0 0 .036-.082v-3.301c0-.037-.01-.062-.031-.081a.118.118 0 0 0-.086-.031zm2.519.362c.27 0 .484.084.645.248.161.166.25.417.263.753.009.195.012.327.012.402 0 .066-.003.204-.012.406-.013.335-.102.584-.263.746-.16.163-.375.244-.645.244-.272 0-.49-.081-.65-.244-.161-.162-.25-.411-.259-.746a13.388 13.388 0 0 1 0-.808c.01-.336.096-.587.259-.753.162-.164.382-.248.65-.248zm-5.623.05h.75c.35 0 .6.078.754.234.152.156.23.407.239.741.006.195.01.317.01.371 0 .052-.004.18-.01.382-.009.239-.041.424-.103.564a.59.59 0 0 1-.299.309c-.14.067-.328.098-.564.098h-.777z" style="text-align:center"/></g></svg>