<svg xmlns="http://www.w3.org/2000/svg" viewBox="0 0 64.823 64.823" height="245" width="245"><path fill="#ffca2b" paint-order="markers stroke fill" d="M0 0h64.823v64.823H0z"/><g fill="#bf4b01"><path d="M18.045 15.5l7.61 6.353 1.364-1.908h10.813l-5.357 7.463-.052.07-.011.018-.023-.019-.03-.016-.005-.006-.024-.024-3.537-2.958-7.585 10.574-3.19 4.446h28.76l-7.609-6.349-1.365 1.903H26.991l5.357-7.458.053-.07.01-.017.023.016.03.02.006.005.024.022 3.536 2.952 7.585-10.572 3.191-4.446z" color="#000"/><path d="M24.15 45.152c-.53 0-.944.139-1.239.415-.293.276-.446.661-.466 1.156-.004.108-.006.278-.006.519 0 .235.002.409.006.513.02.503.175.89.466 1.162.293.27.706.407 1.238.407.344 0 .644-.062.898-.18.256-.119.456-.28.596-.485a1.26 1.26 0 0 0 .222-.689.107.107 0 0 0-.035-.088.123.123 0 0 0-.088-.033h-.56a.152.152 0 0 0-.105.033.232.232 0 0 0-.058.112c-.057.24-.158.41-.304.508-.144.1-.334.146-.566.146-.552 0-.84-.304-.864-.923-.004-.112-.006-.28-.006-.496 0-.215.002-.374.006-.478.024-.618.312-.928.864-.928.236 0 .424.048.566.147.144.097.247.267.304.506.015.054.034.09.058.112.023.02.058.036.105.036h.56c.032 0 .056-.015.082-.036.024-.022.041-.044.041-.076V46.5a1.26 1.26 0 0 0-.222-.69 1.43 1.43 0 0 0-.596-.483 2.124 2.124 0 0 0-.898-.176zm7.235 0c-.29 0-.54.045-.753.14a1.12 1.12 0 0 0-.483.39.946.946 0 0 0-.17.555.99.99 0 0 0 .134.538c.088.14.22.26.396.355.176.097.409.19.706.274.314.094.55.17.708.234.155.063.27.136.349.222a.472.472 0 0 1 .123.327.555.555 0 0 1-.247.478c-.162.115-.407.175-.733.175-.307 0-.544-.058-.706-.175a.699.699 0 0 1-.299-.42c-.026-.077-.076-.116-.146-.116h-.28a.123.123 0 0 0-.087.033.121.121 0 0 0-.036.083c.01.19.071.367.194.532.122.164.297.295.53.396.234.1.512.15.83.15.47 0 .844-.106 1.12-.307.274-.204.413-.484.414-.846a.947.947 0 0 0-.141-.532 1.056 1.056 0 0 0-.419-.344 4.472 4.472 0 0 0-.77-.28 6.364 6.364 0 0 1-.654-.222.886.886 0 0 1-.333-.228.5.5 0 0 1-.104-.332c0-.2.078-.353.233-.456.153-.1.36-.151.624-.151.243 0 .444.056.607.164.162.108.257.241.28.407.01.04.031.07.058.088.028.02.057.03.087.03h.286a.114.114 0 0 0 .088-.036.114.114 0 0 0 .035-.087.901.901 0 0 0-.18-.478 1.262 1.262 0 0 0-.484-.404 1.768 1.768 0 0 0-.777-.157zm16.717 0c-.482 0-.865.133-1.148.404-.286.269-.435.67-.45 1.195-.004.112-.006.272-.006.485 0 .211.002.38.006.495.015.534.156.932.431 1.197.274.265.665.396 1.167.396s.889-.13 1.161-.396c.273-.265.417-.663.432-1.197.007-.231.01-.4.01-.495 0-.1-.003-.261-.01-.485-.015-.525-.16-.926-.443-1.195-.282-.271-.666-.404-1.15-.404zm-32.787.058a.144.144 0 0 0-.105.041.134.134 0 0 0-.035.1v.408a.14.14 0 0 0 .14.146h1.897l-2.007 2.592c-.024.03-.047.056-.065.087a.245.245 0 0 0-.023.122v.414c0 .043.01.079.035.105a.137.137 0 0 0 .105.041h2.9a.14.14 0 0 0 .105-.041.14.14 0 0 0 .036-.1v-.42c0-.042-.011-.074-.036-.098a.151.151 0 0 0-.104-.036h-1.962l1.962-2.608a.302.302 0 0 0 .074-.204v-.409a.127.127 0 0 0-.04-.099.144.144 0 0 0-.105-.04zm3.799 0a.128.128 0 0 0-.1.041.141.141 0 0 0-.04.1v3.775c0 .04.015.073.04.099a.13.13 0 0 0 .1.041h2.603a.144.144 0 0 0 .104-.041.122.122 0 0 0 .041-.1v-.395a.128.128 0 0 0-.04-.1.15.15 0 0 0-.105-.04h-1.95v-1.046h1.774a.144.144 0 0 0 .105-.04.122.122 0 0 0 .04-.1v-.368a.13.13 0 0 0-.04-.098.144.144 0 0 0-.105-.042h-1.774v-1.013h1.903a.152.152 0 0 0 .105-.042.127.127 0 0 0 .04-.098v-.393a.127.127 0 0 0-.04-.099.144.144 0 0 0-.105-.04zm7.265 0a.148.148 0 0 0-.106.041.136.136 0 0 0-.034.1v.438c0 .041.013.077.041.105.026.026.06.04.1.04h1.067v3.192c0 .04.013.073.04.099a.137.137 0 0 0 .1.041h.547a.122.122 0 0 0 .1-.041.132.132 0 0 0 .035-.1v-3.19h1.068a.144.144 0 0 0 .104-.041.142.142 0 0 0 .041-.105v-.439a.127.127 0 0 0-.04-.099.144.144 0 0 0-.105-.04zm7.101 0a.137.137 0 0 0-.099.036c-.026.024-.035.056-.035.099v.228c0 .039.01.074.035.099.024.026.06.035.1.035h1.114v3.425c0 .039.015.069.041.093a.121.121 0 0 0 .093.041h.28a.143.143 0 0 0 .1-.041.121.121 0 0 0 .04-.093v-3.425h1.108c.039 0 .074-.01.099-.035.026-.025.035-.06.035-.1v-.227c0-.043-.011-.075-.035-.1-.023-.023-.056-.035-.1-.035zm3.658 0a.127.127 0 0 0-.093.036.139.139 0 0 0-.036.099v2.358c0 .543.138.95.41 1.22.27.268.656.4 1.155.4.498 0 .881-.132 1.15-.4.267-.27.402-.677.402-1.22v-2.358a.128.128 0 0 0-.041-.1.124.124 0 0 0-.094-.035h-.28a.134.134 0 0 0-.099.036.13.13 0 0 0-.033.099v2.37c-.002.375-.088.653-.264.84-.175.186-.42.28-.741.28-.325 0-.577-.09-.753-.275-.175-.185-.263-.467-.263-.846v-2.37a.128.128 0 0 0-.04-.098c-.025-.024-.057-.036-.1-.036zm4.086 0a.109.109 0 0 0-.088.036c-.025.024-.036.056-.036.099v3.787c0 .039.011.069.036.093a.107.107 0 0 0 .088.041h1.342c.388 0 .702-.058.94-.17.235-.112.408-.282.518-.512.11-.231.167-.526.174-.894.006-.116.007-.27.007-.461a9.58 9.58 0 0 0-.007-.448c-.007-.525-.144-.919-.401-1.179-.26-.26-.678-.392-1.26-.392zm3.984 0c-.039 0-.069.012-.093.036a.131.131 0 0 0-.036.093v3.793c0 .039.013.069.036.093a.121.121 0 0 0 .093.041h.291c.04 0 .07-.015.094-.041a.121.121 0 0 0 .04-.093v-3.793c0-.043-.01-.07-.035-.093a.136.136 0 0 0-.099-.036zm2.894.415c.31 0 .557.097.742.286.185.19.287.478.302.864.01.224.013.375.013.461 0 .077-.004.236-.013.467-.015.385-.117.67-.302.857-.185.187-.432.28-.742.28-.311 0-.562-.093-.747-.28-.184-.187-.285-.472-.296-.857a15.379 15.379 0 0 1-.006-.467c0-.198.002-.349.006-.46.01-.387.11-.675.296-.865.187-.189.44-.286.747-.286zm-6.458.058h.862c.402 0 .69.09.865.269.175.179.265.466.274.851.008.224.012.364.012.426 0 .06-.004.207-.012.439-.009.274-.046.487-.117.648a.678.678 0 0 1-.344.354c-.16.077-.377.112-.648.112h-.892z" style="text-align:center"/></g></svg>