<svg xmlns="http://www.w3.org/2000/svg" width="21.005" height="21"><path d="M10.505 5.116A5.376 5.376 0 0 0 5.12 10.5a5.376 5.376 0 0 0 5.384 5.384 5.376 5.376 0 0 0 5.384-5.384 5.376 5.376 0 0 0-5.384-5.384zm0 8.884c-1.926 0-3.5-1.57-3.5-3.5s1.57-3.5 3.5-3.5 3.5 1.57 3.5 3.5-1.574 3.5-3.5 3.5zm6.86-9.104c0 .698-.562 1.255-1.256 1.255a1.256 1.256 0 1 1 1.256-1.256zM20.93 6.17c-.08-1.682-.464-3.172-1.696-4.4C18.007.542 16.517.158 14.835.074 13.1-.025 7.903-.025 6.17.074c-1.677.08-3.167.464-4.4 1.691C.538 2.993.158 4.483.074 6.165c-.099 1.734-.099 6.931 0 8.665.08 1.682.464 3.172 1.696 4.4 1.233 1.228 2.718 1.612 4.4 1.696 1.734.099 6.93.099 8.664 0 1.683-.08 3.173-.464 4.4-1.696 1.228-1.228 1.613-2.718 1.697-4.4.098-1.734.098-6.926 0-8.66zm-2.24 10.52a3.544 3.544 0 0 1-1.996 1.996c-1.383.549-4.663.422-6.19.422-1.528 0-4.813.122-6.19-.422a3.544 3.544 0 0 1-1.997-1.996c-.548-1.382-.421-4.662-.421-6.19 0-1.528-.122-4.812.421-6.19a3.544 3.544 0 0 1 1.997-1.996c1.382-.549 4.662-.422 6.19-.422 1.527 0 4.812-.122 6.19.422A3.544 3.544 0 0 1 18.69 4.31c.548 1.382.422 4.662.422 6.19 0 1.528.126 4.812-.422 6.19z" fill="#fff"/></svg>