<svg xmlns="http://www.w3.org/2000/svg" width="21" height="21"><path d="M19.5 0H1.495C.67 0 0 .68 0 1.514v17.972C0 20.32.67 21 1.495 21H19.5c.825 0 1.5-.68 1.5-1.514V1.514A1.51 1.51 0 0 0 19.5 0zM6.347 18H3.234V7.978h3.118V18zM4.79 6.61a1.805 1.805 0 0 1 0-3.61c.993 0 1.804.81 1.804 1.805 0 .998-.806 1.804-1.804 1.804zM18.014 18h-3.112v-4.875c0-1.162-.024-2.658-1.618-2.658-1.622 0-1.87 1.266-1.87 2.574V18H8.302V7.978h2.986v1.369h.042c.417-.788 1.434-1.617 2.948-1.617 3.15 0 3.736 2.076 3.736 4.776z" fill="#fff"/></svg>