<svg xmlns="http://www.w3.org/2000/svg" width="88.939" height="11.38"><g style="line-height:170.217453px;-inkscape-font-specification:'Source Sans Pro Bold Italic';font-variant-ligatures:normal;font-variant-position:normal;font-variant-caps:normal;font-variant-numeric:normal;font-variant-alternates:normal;font-feature-settings:normal;text-indent:0;text-align:center;text-decoration-line:none;text-decoration-style:solid;text-decoration-color:#000;text-transform:none;text-orientation:mixed;white-space:normal;shape-padding:0"><path style="-inkscape-font-specification:'Source Sans Pro Heavy Italic'" d="M0 11.18L2.17.334h2.77l.7 4.672.25 1.835h.067l.951-1.835L9.444.334h2.77L10.045 11.18H7.542l.768-3.604q.083-.418.2-.918.134-.5.284-1.001.15-.5.3-.985.15-.484.284-.9h-.05L7.976 6.306l-2.303 3.938h-1L3.97 6.307l-.333-2.536h-.05q-.034.417-.084.918-.033.484-.083.984-.05.501-.117 1.002-.05.483-.134.9l-.734 3.605zm17.287.2q-.934 0-1.719-.3-.767-.317-1.318-.901-.55-.584-.868-1.435-.3-.868-.3-1.97 0-1.518.467-2.736.484-1.235 1.252-2.102.784-.868 1.785-1.335Q17.604.134 18.69.134q.934 0 1.702.317.784.3 1.335.884.55.584.85 1.452.318.85.318 1.952 0 1.518-.484 2.753-.467 1.218-1.252 2.086-.767.868-1.785 1.335-1.018.467-2.086.467zm.134-2.303q.467 0 .95-.3.484-.3.885-.851.4-.55.65-1.318.251-.768.251-1.702 0-1.185-.434-1.819-.417-.65-1.168-.65-.467 0-.951.3-.484.3-.884.85-.4.551-.651 1.319-.25.767-.25 1.702 0 1.185.417 1.835.434.634 1.185.634zm5.64 2.103l.333-1.602 5.507-7.008h-4.005L25.33.334h7.209l-.334 1.602-5.44 7.008h4.405l-.467 2.236zm9.377 0L34.608.334h6.607l-.433 2.236H36.81l-.367 1.902h3.37l-.433 2.236h-3.37l-.468 2.236h4.105l-.434 2.236zm13.85.2q-1.018 0-1.835-.3-.801-.317-1.385-.901-.568-.584-.885-1.435-.3-.868-.3-1.97 0-1.451.467-2.67.467-1.217 1.268-2.102.818-.884 1.903-1.368 1.101-.5 2.37-.5 1.084 0 1.868.467.784.45 1.268 1.301l-1.802 1.402q-.3-.45-.65-.65-.334-.218-.818-.218-.651 0-1.235.334-.567.317-1.001.884-.418.551-.668 1.319-.233.767-.233 1.635 0 1.185.483 1.852.501.65 1.652.65.234 0 .484-.066.267-.067.45-.2l.401-1.802h-1.602l.4-2.17h3.939l-1.035 5.373q-.634.484-1.551.818-.902.317-1.953.317zm5.44-.2L53.898.334h3.57q.818 0 1.518.15.701.15 1.218.5.518.334.802.885.3.55.3 1.335 0 .75-.2 1.368-.184.6-.534 1.085-.35.467-.835.817-.484.334-1.05.55l1.618 4.156H57.5l-1.25-3.738h-1.118l-.734 3.738zm3.838-5.84h.968q1.084 0 1.601-.468.534-.484.534-1.268 0-.6-.417-.884-.4-.284-1.151-.284h-.968zm10.376.104l-.557 1.245h1.965l-.032-1.245q-.033-.77-.05-1.49-.016-.737-.016-1.555h-.065q-.328.786-.623 1.539-.278.737-.622 1.506zm-5.436 5.633L66.073.434h3.144l1.015 10.643h-2.75l-.066-2.423h-2.931l-1.097 2.423zm10.71 0L73.343.434h2.718l.688 4.585.245 1.8h.066l.933-1.8 2.49-4.585h2.718l-2.13 10.643h-2.455l.753-3.537q.082-.409.196-.9.131-.491.279-.983.147-.491.295-.966.147-.475.278-.884h-.05l-1.326 2.489-2.26 3.864H75.8l-.688-3.864-.327-2.49h-.05q-.032.41-.081.902-.033.474-.082.966-.05.49-.115.982-.049.475-.13.884l-.721 3.537zM85.1 7.18l.622-4.781.328-2.293h2.62L88.147 2.4l-1.343 4.78zm.098 4.094q-.59 0-.95-.377-.36-.376-.36-.999 0-.327.131-.655.131-.327.36-.589.246-.262.574-.426.327-.164.737-.164.59 0 .95.393t.36.983q0 .344-.131.671-.131.328-.377.59-.23.262-.557.41-.327.163-.737.163z" word-spacing="0" letter-spacing="0" font-weight="900" font-size="144.427" font-style="italic" aria-label="MOZEGRAM!" font-family="Source Sans Pro" text-anchor="middle" fill="#fff" stroke-width="14.621" stroke-linecap="round" stroke-linejoin="round" paint-order="markers stroke fill"/></g></svg>