<svg xmlns="http://www.w3.org/2000/svg" width="21" height="21"><path d="M18.841 6.223c.014.186.014.373.014.56 0 5.69-4.33 12.245-12.246 12.245A12.16 12.16 0 0 1 0 17.096c.346.04.68.053 1.04.053a8.62 8.62 0 0 0 5.343-1.839 4.312 4.312 0 0 1-4.025-2.984c.267.04.533.066.813.066.387 0 .773-.053 1.133-.146A4.305 4.305 0 0 1 .853 8.022v-.054c.573.32 1.239.52 1.945.547A4.3 4.3 0 0 1 .88 4.93c0-.8.214-1.532.587-2.172a12.234 12.234 0 0 0 8.874 4.504 4.859 4.859 0 0 1-.107-.986 4.302 4.302 0 0 1 4.304-4.304c1.24 0 2.359.52 3.145 1.36a8.474 8.474 0 0 0 2.732-1.04c-.32 1-1 1.839-1.892 2.372A8.627 8.627 0 0 0 21 3.997a9.252 9.252 0 0 1-2.159 2.226z" fill="#fff"/></svg>