<svg xmlns="http://www.w3.org/2000/svg" width="210mm" height="297mm" viewBox="0 0 210 297"><path fill="#5f991f" paint-order="markers stroke fill" d="M-100.449-.076h64.823v83.7h-64.823z"/><g fill="#fff"><path d="M-82.404 24.862l7.61 6.354 1.364-1.908h10.813l-5.357 7.463-.052.07-.011.018-.023-.019-.03-.016-.005-.006-.025-.024-3.536-2.958-7.585 10.574-3.19 4.446h28.76l-7.609-6.349-1.365 1.903h-10.813l5.357-7.457.052-.071.012-.017.022.017.03.018.005.006.025.022 3.536 2.952 7.585-10.572 3.191-4.446z" color="#000"/><path d="M-76.3 54.516c-.528 0-.943.138-1.238.414-.293.276-.446.661-.467 1.156-.003.108-.005.278-.005.519 0 .235.002.409.005.513.02.503.176.89.467 1.162.293.27.706.407 1.238.407.344 0 .644-.062.898-.18.256-.119.456-.28.596-.485a1.26 1.26 0 0 0 .222-.689.107.107 0 0 0-.035-.088.123.123 0 0 0-.088-.033h-.56a.152.152 0 0 0-.105.033.232.232 0 0 0-.058.112c-.058.24-.158.41-.304.508-.144.1-.334.146-.566.146-.553 0-.84-.304-.864-.922-.004-.112-.006-.28-.006-.497 0-.215.002-.374.006-.478.024-.618.311-.928.864-.928.235 0 .424.048.566.147.144.098.246.267.304.506.015.055.034.09.058.112.023.021.058.036.105.036h.56c.032 0 .056-.015.082-.036.024-.022.041-.044.041-.076v-.011a1.26 1.26 0 0 0-.222-.69 1.43 1.43 0 0 0-.596-.483 2.124 2.124 0 0 0-.898-.175zm7.236 0c-.29 0-.54.044-.753.14a1.12 1.12 0 0 0-.484.39.946.946 0 0 0-.17.554.99.99 0 0 0 .135.538c.088.14.22.26.396.355.175.097.409.19.706.274.313.094.55.17.707.234.155.063.271.136.35.222a.472.472 0 0 1 .123.327.555.555 0 0 1-.247.478c-.162.116-.407.175-.734.175-.306 0-.543-.058-.705-.175a.699.699 0 0 1-.3-.42c-.025-.077-.076-.116-.145-.116h-.28a.123.123 0 0 0-.088.034.121.121 0 0 0-.035.082c.01.19.07.368.194.532.121.164.297.295.53.396.234.1.512.151.83.151.47 0 .843-.106 1.12-.308.274-.204.412-.484.414-.846a.947.947 0 0 0-.142-.532 1.056 1.056 0 0 0-.418-.344 4.472 4.472 0 0 0-.771-.28 6.364 6.364 0 0 1-.654-.222.886.886 0 0 1-.332-.228.5.5 0 0 1-.104-.332c0-.2.078-.353.233-.456.153-.1.36-.151.624-.151.242 0 .444.056.606.164.163.109.258.241.28.407.012.04.032.07.058.088.028.02.058.03.088.03h.286a.114.114 0 0 0 .088-.035.114.114 0 0 0 .035-.088.901.901 0 0 0-.181-.478 1.262 1.262 0 0 0-.484-.404 1.768 1.768 0 0 0-.776-.156zm16.717 0c-.482 0-.865.132-1.149.403-.285.269-.435.67-.45 1.195-.003.112-.005.273-.005.485 0 .211.002.38.005.495.015.534.157.932.432 1.197.274.265.665.396 1.167.396s.889-.13 1.161-.396c.273-.265.417-.663.432-1.197.007-.231.01-.4.01-.495 0-.1-.003-.261-.01-.485-.015-.525-.161-.926-.443-1.195-.282-.27-.667-.403-1.15-.403zm-32.787.057a.144.144 0 0 0-.105.042.134.134 0 0 0-.035.099v.408a.14.14 0 0 0 .14.146h1.897l-2.008 2.592c-.023.03-.046.056-.064.088a.245.245 0 0 0-.023.12v.415c0 .043.01.079.035.105a.137.137 0 0 0 .105.041h2.9a.14.14 0 0 0 .105-.041.14.14 0 0 0 .036-.099v-.42c0-.043-.012-.075-.036-.1a.151.151 0 0 0-.104-.035h-1.962l1.962-2.608a.302.302 0 0 0 .074-.204v-.408a.127.127 0 0 0-.04-.1.144.144 0 0 0-.105-.04zm3.799 0a.128.128 0 0 0-.1.042.141.141 0 0 0-.04.099v3.775c0 .04.014.073.04.099a.13.13 0 0 0 .1.041h2.602a.144.144 0 0 0 .105-.041.122.122 0 0 0 .041-.099v-.396a.128.128 0 0 0-.04-.1.15.15 0 0 0-.106-.04h-1.949v-1.046h1.774a.144.144 0 0 0 .105-.04.122.122 0 0 0 .04-.1V56.4a.13.13 0 0 0-.04-.1.144.144 0 0 0-.105-.04h-1.774v-1.014h1.903a.152.152 0 0 0 .104-.041.127.127 0 0 0 .041-.1v-.391a.127.127 0 0 0-.04-.1.144.144 0 0 0-.105-.04zm7.265 0a.148.148 0 0 0-.106.042.136.136 0 0 0-.034.099v.438c0 .041.013.077.041.105.026.026.06.041.099.041h1.068v3.191c0 .04.013.073.04.099a.137.137 0 0 0 .1.041h.547a.122.122 0 0 0 .1-.041.132.132 0 0 0 .035-.099v-3.191h1.068a.144.144 0 0 0 .104-.041.142.142 0 0 0 .041-.105v-.438a.127.127 0 0 0-.04-.1.144.144 0 0 0-.105-.04zm7.101 0a.137.137 0 0 0-.099.036c-.026.024-.035.056-.035.099v.228c0 .039.009.074.035.099.024.026.06.035.099.035h1.115v3.425c0 .039.015.069.04.093a.121.121 0 0 0 .094.041h.28a.143.143 0 0 0 .1-.041.121.121 0 0 0 .04-.093V55.07h1.108c.039 0 .074-.01.098-.035.027-.025.036-.06.036-.1v-.227c0-.043-.011-.075-.036-.1-.022-.023-.056-.035-.098-.035zm3.658 0a.127.127 0 0 0-.094.036.139.139 0 0 0-.035.099v2.358c0 .544.138.95.409 1.22.27.268.657.401 1.156.401.498 0 .881-.133 1.15-.401.267-.27.401-.676.401-1.22v-2.358a.128.128 0 0 0-.04-.1.124.124 0 0 0-.094-.035h-.28a.134.134 0 0 0-.1.036.13.13 0 0 0-.033.099v2.37c-.002.375-.087.653-.263.84-.175.186-.42.28-.741.28-.325 0-.577-.09-.753-.275-.175-.185-.263-.467-.263-.846v-2.37a.128.128 0 0 0-.041-.098c-.024-.024-.056-.036-.1-.036zm4.085 0a.109.109 0 0 0-.087.036c-.025.024-.036.056-.036.099v3.787c0 .039.011.069.036.093a.107.107 0 0 0 .087.041h1.343c.388 0 .702-.058.94-.17.234-.112.408-.282.518-.511.11-.232.166-.527.174-.895.005-.116.007-.27.007-.461a9.58 9.58 0 0 0-.007-.448c-.008-.525-.144-.919-.402-1.178-.26-.262-.677-.393-1.26-.393zm3.985 0c-.04 0-.07.012-.093.036a.131.131 0 0 0-.036.093v3.793c0 .039.013.069.036.093a.121.121 0 0 0 .093.041h.291c.04 0 .07-.015.094-.041a.121.121 0 0 0 .04-.093v-3.793c0-.043-.01-.07-.035-.093a.136.136 0 0 0-.099-.036zm2.894.415c.31 0 .557.097.741.286.185.19.288.478.303.864.01.224.013.376.013.461 0 .077-.004.236-.013.467-.015.385-.118.67-.303.857-.184.187-.43.28-.74.28-.313 0-.563-.093-.748-.28-.185-.186-.285-.472-.297-.857a15.379 15.379 0 0 1-.005-.467c0-.198.002-.349.005-.46.012-.387.11-.675.297-.865.187-.189.44-.286.747-.286zm-6.459.058h.863c.402 0 .69.09.865.269.175.179.265.467.274.851.008.224.011.364.011.426 0 .06-.003.207-.01.439-.01.274-.048.487-.119.648a.678.678 0 0 1-.343.354c-.16.077-.377.112-.648.112h-.893z" style="text-align:center"/></g><path fill="#edeeef" paint-order="markers stroke fill" d="M-10.419 161.346h64.823v75.612h-64.823z"/><g fill="#214478"><path d="M4.735 178.835l9.14 7.634 1.64-2.293h12.99l-6.435 8.966-.063.083-.014.022-.027-.022-.036-.02-.006-.007-.03-.03-4.248-3.552-9.111 12.702L4.7 207.66h34.55l-9.14-7.626-1.64 2.285h-12.99l6.436-8.959.063-.085.013-.02.027.02.036.023.007.006.029.027 4.248 3.547 9.112-12.7 3.833-5.342z" color="#000"/><path style="text-align:center" d="M12.068 214.458c-.635 0-1.133.166-1.488.498-.352.332-.536.794-.56 1.389-.005.13-.007.334-.007.623 0 .283.002.491.007.617.024.603.21 1.068.56 1.395.353.325.848.49 1.488.49a2.55 2.55 0 0 0 1.078-.216c.308-.144.548-.337.716-.583.168-.247.258-.52.267-.828a.128.128 0 0 0-.043-.105.147.147 0 0 0-.105-.04h-.673a.183.183 0 0 0-.126.04.278.278 0 0 0-.07.134c-.069.287-.19.491-.365.61-.173.12-.401.175-.68.175-.663 0-1.009-.365-1.038-1.108a19.608 19.608 0 0 1-.007-.597c0-.258.002-.448.007-.574.03-.742.375-1.115 1.039-1.115.282 0 .509.059.68.178.172.116.295.32.365.607.018.066.04.108.07.135.026.025.069.043.125.043h.673c.038 0 .067-.018.099-.043.029-.027.049-.054.049-.092v-.013a1.513 1.513 0 0 0-.267-.828 1.717 1.717 0 0 0-.716-.581c-.305-.141-.666-.21-1.078-.21zm8.692 0c-.348 0-.649.054-.904.168a1.345 1.345 0 0 0-.581.47 1.136 1.136 0 0 0-.205.665c0 .26.054.476.162.646.105.169.265.312.476.427.21.116.49.228.847.33.377.111.662.203.85.28.187.076.326.163.42.267a.567.567 0 0 1 .148.392c0 .247-.1.435-.296.574-.195.14-.489.211-.882.211-.367 0-.652-.07-.847-.21-.198-.142-.317-.31-.36-.505-.03-.092-.091-.14-.174-.14h-.337a.147.147 0 0 0-.105.041.146.146 0 0 0-.043.099c.011.228.085.442.233.639.146.197.357.354.637.476.28.12.615.181.996.181.566 0 1.014-.128 1.346-.37.33-.244.496-.58.498-1.016-.002-.26-.058-.473-.17-.64a1.27 1.27 0 0 0-.503-.412 5.372 5.372 0 0 0-.926-.337 7.645 7.645 0 0 1-.785-.266 1.065 1.065 0 0 1-.4-.274.6.6 0 0 1-.125-.4c0-.24.094-.423.28-.547.184-.12.433-.181.75-.181.291 0 .533.067.729.197.195.13.31.29.336.489a.19.19 0 0 0 .07.105c.033.025.07.036.105.036h.343a.137.137 0 0 0 .106-.042.137.137 0 0 0 .042-.106 1.082 1.082 0 0 0-.217-.574 1.516 1.516 0 0 0-.581-.484c-.258-.126-.572-.189-.933-.189zm20.082 0c-.579 0-1.039.16-1.38.485-.343.323-.522.805-.54 1.435-.005.135-.007.328-.007.583 0 .254.002.456.007.595.018.641.188 1.12.518 1.438.33.318.799.475 1.402.475.603 0 1.068-.157 1.395-.475.328-.319.5-.797.518-1.438.01-.278.014-.48.014-.595 0-.12-.005-.314-.014-.583-.018-.63-.193-1.112-.531-1.435-.339-.326-.801-.485-1.382-.485zm-39.387.07a.173.173 0 0 0-.126.049.16.16 0 0 0-.042.119v.491a.169.169 0 0 0 .168.175h2.278l-2.41 3.114c-.029.035-.057.067-.078.105a.294.294 0 0 0-.028.146v.498c0 .051.012.094.042.125.03.034.075.05.126.05H4.87c.05 0 .094-.016.125-.05a.168.168 0 0 0 .043-.119v-.504c0-.052-.013-.09-.043-.12a.182.182 0 0 0-.125-.042H2.514l2.356-3.133c.06-.07.09-.153.09-.245v-.491a.153.153 0 0 0-.05-.119.172.172 0 0 0-.125-.05zm4.563 0a.154.154 0 0 0-.119.049.17.17 0 0 0-.049.119v4.535c0 .048.018.088.05.12.03.033.071.049.118.049h3.127a.172.172 0 0 0 .126-.05.146.146 0 0 0 .05-.119v-.475a.154.154 0 0 0-.05-.121.18.18 0 0 0-.126-.047H6.803v-1.256h2.131a.172.172 0 0 0 .126-.05.146.146 0 0 0 .05-.119v-.442a.156.156 0 0 0-.05-.118.172.172 0 0 0-.126-.05h-2.13v-1.218h2.285c.052 0 .094-.02.126-.05a.153.153 0 0 0 .05-.118v-.471a.153.153 0 0 0-.05-.119.172.172 0 0 0-.126-.05zm8.728 0a.178.178 0 0 0-.128.049.163.163 0 0 0-.04.119v.527c0 .05.016.092.05.126.03.031.071.049.118.049h1.283v3.833a.164.164 0 0 0 .168.168h.658c.051 0 .09-.015.119-.049a.159.159 0 0 0 .042-.119v-3.833H18.3a.172.172 0 0 0 .126-.05.17.17 0 0 0 .05-.125v-.527a.153.153 0 0 0-.05-.119.172.172 0 0 0-.126-.05zm8.53 0a.165.165 0 0 0-.118.042c-.032.03-.043.068-.043.12v.273c0 .047.011.09.043.119.029.031.072.042.119.042h1.339v4.114c0 .047.018.083.05.112.028.032.064.05.111.05h.337a.172.172 0 0 0 .119-.05.146.146 0 0 0 .05-.112v-4.114h1.33c.046 0 .089-.01.118-.042.032-.03.043-.072.043-.12v-.273c0-.051-.014-.09-.043-.119-.027-.029-.067-.042-.119-.042zm4.395 0a.152.152 0 0 0-.112.042.167.167 0 0 0-.043.12v2.832c0 .653.166 1.142.491 1.465.326.323.79.482 1.389.482s1.059-.16 1.382-.482c.32-.323.482-.812.482-1.465v-2.833a.154.154 0 0 0-.05-.119.149.149 0 0 0-.112-.042h-.336c-.05 0-.09.013-.119.042a.157.157 0 0 0-.04.12v2.846c-.003.45-.106.785-.317 1.009-.21.224-.504.337-.89.337-.39 0-.693-.108-.904-.33-.21-.222-.316-.561-.316-1.016v-2.847a.154.154 0 0 0-.05-.119c-.029-.029-.067-.042-.119-.042zm4.908 0a.13.13 0 0 0-.106.042c-.029.03-.042.068-.042.12v4.548c0 .047.013.083.042.112.027.032.059.05.106.05h1.613c.466 0 .843-.07 1.128-.204.283-.135.491-.34.624-.615.132-.278.2-.633.208-1.075.007-.139.01-.325.01-.554 0-.226-.003-.403-.01-.538-.009-.63-.173-1.104-.482-1.415-.312-.314-.814-.471-1.514-.471zm4.787 0a.149.149 0 0 0-.112.042.158.158 0 0 0-.043.112v4.556c0 .047.016.083.043.112.029.032.065.05.112.05h.35a.146.146 0 0 0 .112-.05.146.146 0 0 0 .05-.112v-4.556c0-.051-.014-.085-.044-.112a.163.163 0 0 0-.118-.042zm3.476.498c.373 0 .669.116.891.343.222.229.345.574.363 1.038.012.27.016.451.016.554 0 .092-.004.283-.016.561-.018.462-.14.805-.363 1.03-.222.224-.518.336-.89.336-.375 0-.676-.112-.898-.336-.222-.225-.343-.568-.356-1.03-.005-.139-.007-.33-.007-.56 0-.238.002-.42.007-.555.013-.464.132-.81.356-1.038.225-.227.527-.343.897-.343zm-7.758.07h1.036c.482 0 .828.107 1.038.322.211.215.319.56.33 1.023.01.27.014.437.014.511 0 .072-.005.25-.014.528-.011.33-.056.585-.141.778a.815.815 0 0 1-.413.426c-.193.092-.453.135-.778.135h-1.072z"/></g><path fill="#ffca2b" paint-order="markers stroke fill" d="M-100.098 105.667h64.823v64.823h-64.823z"/><g fill="#bf4b01"><path d="M-82.052 121.166l7.609 6.355 1.365-1.909h10.813l-5.357 7.464-.053.069-.01.018-.023-.018-.03-.017-.006-.006-.024-.024-3.536-2.958-7.585 10.574-3.191 4.446h28.76l-7.608-6.348-1.365 1.902h-10.813l5.357-7.457.052-.071.011-.017.023.017.03.018.005.006.024.022 3.537 2.953 7.585-10.573 3.19-4.446z" color="#000"/><path style="text-align:center" d="M-75.948 150.82c-.529 0-.943.138-1.238.414-.293.277-.446.661-.467 1.156-.004.108-.006.278-.006.52 0 .234.002.408.006.513.02.502.176.888.467 1.161.293.27.706.407 1.238.407.343 0 .644-.061.898-.18.256-.119.456-.28.596-.485a1.26 1.26 0 0 0 .222-.689.107.107 0 0 0-.036-.087.123.123 0 0 0-.087-.034h-.56a.152.152 0 0 0-.105.034.232.232 0 0 0-.058.112c-.058.239-.159.409-.304.508-.144.099-.335.145-.566.145-.553 0-.84-.304-.865-.922-.003-.112-.005-.28-.005-.497 0-.215.002-.373.005-.478.025-.618.312-.928.865-.928.235 0 .424.049.566.148.143.097.246.267.304.506.015.054.034.09.058.112.022.02.058.035.104.035h.56c.032 0 .057-.015.083-.035.024-.023.04-.045.04-.077v-.011a1.26 1.26 0 0 0-.221-.69 1.43 1.43 0 0 0-.596-.483 2.124 2.124 0 0 0-.898-.175zm7.235 0c-.29 0-.54.045-.752.14a1.12 1.12 0 0 0-.484.39.946.946 0 0 0-.17.555.99.99 0 0 0 .135.537c.087.14.22.26.396.355.175.097.408.19.705.275.314.093.551.17.708.233.155.064.27.136.35.222a.472.472 0 0 1 .122.327.555.555 0 0 1-.246.478c-.163.116-.407.176-.734.176-.306 0-.543-.058-.706-.176a.699.699 0 0 1-.298-.42c-.027-.077-.077-.116-.146-.116h-.28a.123.123 0 0 0-.088.034.121.121 0 0 0-.035.082c.009.19.07.368.194.532.121.164.297.295.53.396.233.1.512.151.83.151.47 0 .843-.106 1.12-.308.274-.203.412-.484.414-.846a.947.947 0 0 0-.142-.532 1.056 1.056 0 0 0-.418-.344 4.472 4.472 0 0 0-.771-.28 6.364 6.364 0 0 1-.654-.222.886.886 0 0 1-.332-.228.5.5 0 0 1-.105-.332c0-.2.079-.353.234-.456.153-.1.36-.15.623-.15.243 0 .445.055.607.164.163.108.258.24.28.407.011.039.032.069.058.087.028.02.058.03.088.03h.286a.114.114 0 0 0 .087-.035.114.114 0 0 0 .036-.088.901.901 0 0 0-.181-.478 1.262 1.262 0 0 0-.484-.403 1.768 1.768 0 0 0-.777-.157zm16.717 0c-.481 0-.864.132-1.148.403-.286.269-.435.67-.45 1.195-.004.112-.005.273-.005.486 0 .21.001.379.005.494.015.534.157.932.431 1.197.275.265.665.396 1.167.396.503 0 .89-.13 1.162-.396.273-.265.416-.663.431-1.197.008-.231.011-.4.011-.494 0-.101-.003-.262-.01-.486-.016-.525-.161-.926-.443-1.195-.282-.27-.667-.403-1.15-.403zm-32.786.058a.144.144 0 0 0-.105.04.134.134 0 0 0-.035.1v.409a.14.14 0 0 0 .14.145h1.896l-2.007 2.592c-.023.03-.047.056-.064.088a.245.245 0 0 0-.024.121v.415c0 .043.01.078.035.104a.137.137 0 0 0 .106.041h2.9a.14.14 0 0 0 .105-.04.14.14 0 0 0 .035-.1v-.42c0-.043-.01-.075-.035-.099a.151.151 0 0 0-.105-.035H-83.9l1.961-2.609a.302.302 0 0 0 .075-.203v-.41a.127.127 0 0 0-.041-.098.144.144 0 0 0-.105-.041zm3.798 0a.128.128 0 0 0-.099.04.141.141 0 0 0-.04.1v3.775c0 .04.014.073.04.1a.13.13 0 0 0 .1.04h2.602a.144.144 0 0 0 .105-.04.122.122 0 0 0 .04-.1v-.396a.128.128 0 0 0-.04-.1.15.15 0 0 0-.105-.04h-1.95v-1.045h1.775a.144.144 0 0 0 .104-.041.122.122 0 0 0 .041-.1v-.367a.13.13 0 0 0-.04-.1.144.144 0 0 0-.105-.04h-1.774v-1.014h1.902a.152.152 0 0 0 .105-.041.127.127 0 0 0 .041-.1v-.391a.127.127 0 0 0-.041-.1.144.144 0 0 0-.105-.04zm7.266 0a.148.148 0 0 0-.107.04.136.136 0 0 0-.033.1v.439c0 .04.013.076.04.104.027.026.06.041.1.041h1.068v3.191a.137.137 0 0 0 .14.14h.547a.122.122 0 0 0 .099-.04.132.132 0 0 0 .035-.1v-3.19h1.068a.144.144 0 0 0 .105-.042.142.142 0 0 0 .04-.104v-.44a.127.127 0 0 0-.04-.098.144.144 0 0 0-.105-.041zm7.1 0a.137.137 0 0 0-.098.035c-.026.024-.036.056-.036.1v.227c0 .04.01.075.036.099.024.026.06.035.099.035h1.114v3.425c0 .039.015.069.041.093a.121.121 0 0 0 .094.041h.28a.143.143 0 0 0 .099-.04.121.121 0 0 0 .04-.094v-3.425h1.108c.04 0 .075-.009.1-.035.025-.024.035-.06.035-.1v-.227c0-.043-.012-.075-.036-.099-.022-.024-.056-.035-.099-.035zm3.659 0a.127.127 0 0 0-.094.035.139.139 0 0 0-.035.1v2.357c0 .544.138.95.409 1.22.27.269.657.401 1.155.401.499 0 .882-.132 1.15-.401.268-.27.402-.676.402-1.22v-2.358a.128.128 0 0 0-.041-.099.124.124 0 0 0-.093-.035h-.28a.134.134 0 0 0-.1.035.13.13 0 0 0-.033.1v2.369c-.002.375-.088.653-.263.84-.176.187-.42.28-.742.28-.324 0-.577-.09-.752-.275-.176-.184-.263-.466-.263-.845v-2.37a.128.128 0 0 0-.041-.099c-.025-.024-.056-.035-.1-.035zm4.085 0a.109.109 0 0 0-.088.035c-.024.024-.035.056-.035.1v3.786c0 .039.011.069.035.093a.107.107 0 0 0 .088.041h1.343c.388 0 .702-.058.939-.17.235-.112.409-.282.519-.511.11-.232.166-.527.173-.895.006-.115.008-.27.008-.46a9.58 9.58 0 0 0-.008-.449c-.007-.525-.143-.919-.401-1.178-.26-.262-.678-.392-1.26-.392zm3.985 0c-.04 0-.07.01-.094.035a.131.131 0 0 0-.035.094v3.792c0 .039.013.069.035.093a.121.121 0 0 0 .094.041h.29c.04 0 .07-.015.094-.04a.121.121 0 0 0 .041-.094v-3.792c0-.043-.01-.071-.035-.094a.136.136 0 0 0-.1-.035zm2.894.414c.31 0 .556.097.741.286.185.19.288.478.303.864.009.224.013.376.013.462 0 .076-.004.235-.013.466-.015.385-.118.67-.303.857-.185.187-.431.28-.741.28-.312 0-.562-.093-.747-.28-.185-.186-.286-.472-.297-.857a15.379 15.379 0 0 1-.006-.466c0-.198.002-.35.006-.462.011-.386.11-.674.297-.864.187-.189.439-.286.747-.286zm-6.459.058h.863c.401 0 .689.09.864.269.176.18.265.467.275.851.007.224.011.365.011.426 0 .06-.004.207-.011.439-.01.274-.047.487-.118.648a.678.678 0 0 1-.343.355c-.161.076-.378.112-.648.112h-.893z"/></g><path fill="#40b1e3" paint-order="markers stroke fill" d="M-7.605 72.961h64.823v64.823H-7.605z"/><g fill="#fff"><path d="M10.44 88.46l7.61 6.354 1.364-1.908h10.813l-5.357 7.463-.052.07-.011.018-.023-.019-.03-.017-.005-.005-.025-.025-3.536-2.957-7.585 10.574-3.19 4.446h28.76l-7.609-6.349-1.365 1.903H19.386l5.357-7.458.052-.07.012-.018.022.017.03.019.006.006.024.022 3.536 2.952 7.585-10.572 3.191-4.446z" color="#000"/><path d="M16.544 118.113c-.528 0-.943.138-1.238.415-.293.276-.446.66-.467 1.156-.003.108-.005.278-.005.519 0 .235.002.409.005.513.021.502.176.889.467 1.162.293.27.706.407 1.238.407.344 0 .644-.062.898-.18.256-.12.456-.28.596-.485a1.26 1.26 0 0 0 .222-.69.107.107 0 0 0-.035-.087.123.123 0 0 0-.088-.033h-.56a.152.152 0 0 0-.105.033.232.232 0 0 0-.058.112c-.058.24-.158.41-.304.508-.144.099-.334.146-.566.146-.553 0-.84-.305-.864-.923-.004-.112-.006-.28-.006-.496 0-.215.002-.374.006-.478.024-.618.311-.928.864-.928.235 0 .424.048.566.147.144.097.246.267.304.506.015.054.034.09.058.112.023.02.058.036.105.036h.56c.032 0 .056-.015.082-.036.024-.022.041-.045.041-.076v-.012a1.26 1.26 0 0 0-.222-.689 1.43 1.43 0 0 0-.596-.483 2.124 2.124 0 0 0-.898-.176zm7.236 0c-.29 0-.54.045-.753.14a1.12 1.12 0 0 0-.483.39.946.946 0 0 0-.17.555.99.99 0 0 0 .134.538c.088.14.22.26.396.355.175.097.409.19.706.274.313.094.55.17.707.234.155.063.271.136.35.222a.472.472 0 0 1 .123.327.555.555 0 0 1-.247.478c-.162.115-.407.175-.733.175-.307 0-.544-.058-.706-.175a.699.699 0 0 1-.299-.42c-.026-.077-.077-.116-.146-.116h-.28a.123.123 0 0 0-.088.033.121.121 0 0 0-.035.082c.01.19.071.368.194.533.122.164.297.295.53.395.234.101.512.152.83.152.47 0 .844-.107 1.12-.308.274-.204.413-.484.414-.846a.947.947 0 0 0-.142-.532 1.056 1.056 0 0 0-.418-.344 4.472 4.472 0 0 0-.77-.28 6.364 6.364 0 0 1-.654-.222.886.886 0 0 1-.333-.228.5.5 0 0 1-.104-.332c0-.2.078-.353.233-.456.153-.1.36-.151.624-.151.242 0 .444.056.607.164.162.108.257.24.28.407.01.04.031.07.057.088.028.02.058.03.088.03h.286a.114.114 0 0 0 .088-.036.114.114 0 0 0 .035-.088.901.901 0 0 0-.181-.478 1.262 1.262 0 0 0-.484-.403 1.768 1.768 0 0 0-.776-.157zm16.717 0c-.482 0-.865.133-1.148.404-.286.268-.436.67-.45 1.195-.004.112-.006.272-.006.485 0 .211.002.38.006.495.014.534.156.932.43 1.197.275.265.666.396 1.168.396.502 0 .889-.131 1.161-.396.273-.265.417-.663.432-1.197.007-.232.01-.4.01-.495 0-.1-.003-.261-.01-.485-.015-.525-.16-.927-.443-1.195-.282-.271-.666-.404-1.15-.404zm-32.787.058a.144.144 0 0 0-.105.041.134.134 0 0 0-.035.1v.408a.14.14 0 0 0 .14.146h1.897l-2.008 2.591c-.023.03-.046.056-.064.088a.245.245 0 0 0-.023.122v.414c0 .043.01.079.035.105a.137.137 0 0 0 .105.04h2.9a.14.14 0 0 0 .105-.04.14.14 0 0 0 .036-.1v-.42c0-.042-.012-.074-.036-.098a.151.151 0 0 0-.104-.036H8.59l1.962-2.608a.302.302 0 0 0 .074-.204v-.409a.127.127 0 0 0-.04-.099.144.144 0 0 0-.105-.04zm3.799 0a.128.128 0 0 0-.1.041.141.141 0 0 0-.04.1v3.775c0 .039.015.073.04.099a.13.13 0 0 0 .1.04h2.603a.144.144 0 0 0 .104-.04.122.122 0 0 0 .041-.1v-.395a.128.128 0 0 0-.04-.1.15.15 0 0 0-.105-.04h-1.95v-1.046h1.774a.144.144 0 0 0 .105-.04.122.122 0 0 0 .04-.1v-.368a.13.13 0 0 0-.04-.099.144.144 0 0 0-.105-.04h-1.774v-1.015h1.903a.152.152 0 0 0 .104-.04.127.127 0 0 0 .042-.1v-.392a.127.127 0 0 0-.042-.099.144.144 0 0 0-.104-.04zm7.265 0a.148.148 0 0 0-.106.041.136.136 0 0 0-.034.1v.438c0 .041.013.077.041.105.026.026.06.04.099.04h1.068v3.192c0 .039.013.073.04.099a.137.137 0 0 0 .1.04h.547a.122.122 0 0 0 .1-.04.132.132 0 0 0 .035-.1v-3.19h1.068a.144.144 0 0 0 .104-.041.142.142 0 0 0 .041-.105v-.439a.127.127 0 0 0-.04-.099.144.144 0 0 0-.105-.04zm7.101 0a.137.137 0 0 0-.099.036c-.026.024-.035.056-.035.099v.227c0 .04.009.075.035.1.024.026.06.035.1.035h1.114v3.424c0 .04.015.07.04.094a.121.121 0 0 0 .094.04h.28a.143.143 0 0 0 .1-.04.121.121 0 0 0 .04-.094v-3.424h1.108c.039 0 .074-.01.099-.036.026-.024.035-.06.035-.099v-.227c0-.043-.011-.075-.035-.1-.023-.024-.056-.035-.1-.035zm3.658 0a.127.127 0 0 0-.093.036.139.139 0 0 0-.036.099v2.358c0 .543.138.95.409 1.22.27.268.657.4 1.156.4.498 0 .881-.132 1.15-.4.267-.27.402-.677.402-1.22v-2.358a.128.128 0 0 0-.042-.1.124.124 0 0 0-.093-.035h-.28a.134.134 0 0 0-.099.036.13.13 0 0 0-.034.099v2.37c-.001.374-.087.653-.263.84-.175.186-.42.28-.741.28-.325 0-.577-.09-.753-.275-.175-.185-.263-.467-.263-.846v-2.37a.128.128 0 0 0-.041-.098c-.024-.025-.056-.036-.099-.036zm4.085 0a.109.109 0 0 0-.087.036c-.025.024-.036.056-.036.099v3.786c0 .04.011.07.036.094a.107.107 0 0 0 .087.04h1.343c.388 0 .702-.057.94-.17.234-.111.408-.281.518-.51.11-.232.166-.527.174-.895.006-.116.007-.27.007-.461a9.58 9.58 0 0 0-.007-.448c-.008-.525-.144-.92-.402-1.179-.26-.261-.677-.392-1.26-.392zm3.985 0c-.04 0-.069.011-.093.036a.131.131 0 0 0-.036.093v3.792c0 .04.013.07.036.094a.121.121 0 0 0 .093.04h.291c.04 0 .07-.014.094-.04a.121.121 0 0 0 .04-.094V118.3c0-.043-.01-.07-.035-.093a.136.136 0 0 0-.099-.036zm2.894.415c.31 0 .557.097.742.285.184.19.287.478.302.865.01.224.013.375.013.461 0 .077-.004.235-.013.467-.015.385-.118.67-.302.857-.185.187-.432.28-.742.28-.312 0-.562-.093-.747-.28-.184-.187-.285-.472-.297-.857a15.379 15.379 0 0 1-.005-.467c0-.198.002-.35.005-.461.012-.387.11-.674.297-.865.187-.188.44-.285.747-.285zm-6.458.058h.862c.402 0 .69.09.865.268.175.18.265.467.274.852.008.224.011.364.011.426 0 .06-.003.207-.01.438-.01.275-.047.488-.118.648a.678.678 0 0 1-.344.355c-.16.077-.377.112-.648.112h-.892z" style="text-align:center"/></g><path fill="#276b86" paint-order="markers stroke fill" d="M-10.419-.076h64.823v49.939h-64.823z"/><g fill="#fff"><path d="M7.627 7.981l7.609 6.355 1.365-1.909h10.813l-5.357 7.464-.053.069-.01.018-.023-.018-.03-.017-.006-.006-.024-.024-3.536-2.958L10.79 27.53l-3.191 4.446h28.76l-7.608-6.348-1.365 1.902H16.573l5.357-7.457.052-.071.011-.017.023.017.03.018.005.006.024.022L25.612 23l7.585-10.573 3.19-4.446z" color="#000"/><path style="text-align:center" d="M13.73 37.635c-.528 0-.942.138-1.237.414-.293.277-.446.661-.467 1.156-.004.108-.006.278-.006.52 0 .234.002.408.006.513.02.502.175.888.467 1.161.293.27.706.407 1.238.407.343 0 .644-.061.898-.18.256-.119.455-.28.596-.485a1.26 1.26 0 0 0 .222-.689.107.107 0 0 0-.036-.087.123.123 0 0 0-.088-.034h-.56a.152.152 0 0 0-.104.034.232.232 0 0 0-.058.112c-.058.239-.159.409-.304.508-.144.099-.335.145-.566.145-.553 0-.84-.304-.865-.922-.004-.112-.005-.28-.005-.497 0-.215.001-.373.005-.478.024-.618.312-.928.865-.928.235 0 .424.049.566.148.143.097.246.267.304.506.015.054.033.09.058.112.022.02.058.035.104.035h.56c.032 0 .057-.015.083-.035.024-.023.04-.045.04-.077v-.011a1.26 1.26 0 0 0-.221-.69 1.43 1.43 0 0 0-.596-.483 2.124 2.124 0 0 0-.898-.175zm7.236 0c-.29 0-.54.045-.752.14a1.12 1.12 0 0 0-.484.39.946.946 0 0 0-.17.555.99.99 0 0 0 .135.537c.087.14.22.26.395.355.176.097.41.19.706.275.314.093.551.17.708.233.155.064.27.136.35.222a.472.472 0 0 1 .122.327.555.555 0 0 1-.246.478c-.163.116-.407.176-.734.176-.306 0-.543-.058-.706-.176a.699.699 0 0 1-.298-.42c-.027-.077-.077-.116-.146-.116h-.28a.123.123 0 0 0-.088.034.121.121 0 0 0-.035.082c.009.19.07.368.194.532.121.164.297.295.53.396.233.1.512.151.83.151.47 0 .843-.106 1.12-.308.274-.203.412-.484.414-.846a.947.947 0 0 0-.142-.532 1.056 1.056 0 0 0-.418-.344 4.472 4.472 0 0 0-.771-.28 6.364 6.364 0 0 1-.654-.222.886.886 0 0 1-.332-.228.5.5 0 0 1-.105-.332c0-.2.079-.353.234-.456.153-.1.36-.15.623-.15.243 0 .445.055.607.164.163.108.258.24.28.407.011.039.032.069.058.087.028.02.058.03.088.03h.285a.114.114 0 0 0 .088-.035.114.114 0 0 0 .036-.088.901.901 0 0 0-.181-.478 1.262 1.262 0 0 0-.484-.403 1.768 1.768 0 0 0-.777-.157zm16.717 0c-.481 0-.864.132-1.148.403-.286.269-.435.67-.45 1.195-.004.112-.005.273-.005.486 0 .21.001.379.005.494.015.534.157.932.431 1.197.275.265.665.396 1.167.396.503 0 .89-.13 1.162-.396.272-.265.416-.663.431-1.197.008-.231.011-.4.011-.494 0-.101-.003-.262-.01-.486-.016-.525-.161-.926-.443-1.195-.282-.27-.667-.403-1.15-.403zm-32.786.058a.144.144 0 0 0-.105.04.134.134 0 0 0-.035.1v.409a.14.14 0 0 0 .14.145h1.896L4.786 40.98c-.023.03-.047.056-.064.088a.245.245 0 0 0-.024.121v.415c0 .043.01.078.035.104a.137.137 0 0 0 .105.041H7.74a.14.14 0 0 0 .105-.04.14.14 0 0 0 .035-.1v-.42c0-.043-.011-.075-.035-.099a.151.151 0 0 0-.105-.035H5.778l1.961-2.609a.302.302 0 0 0 .075-.203v-.41a.127.127 0 0 0-.041-.098.144.144 0 0 0-.105-.041zm3.798 0a.128.128 0 0 0-.099.04.141.141 0 0 0-.04.1v3.775c0 .04.014.073.04.1a.13.13 0 0 0 .1.04h2.602a.144.144 0 0 0 .105-.04.122.122 0 0 0 .04-.1v-.396a.128.128 0 0 0-.04-.1.15.15 0 0 0-.105-.04h-1.95v-1.045h1.775a.144.144 0 0 0 .104-.041.122.122 0 0 0 .041-.1v-.367a.13.13 0 0 0-.04-.1.144.144 0 0 0-.105-.04H9.349v-1.014h1.902a.152.152 0 0 0 .105-.041.127.127 0 0 0 .041-.1v-.391a.127.127 0 0 0-.041-.1.144.144 0 0 0-.105-.04zm7.266 0a.148.148 0 0 0-.107.04.136.136 0 0 0-.033.1v.439c0 .04.013.076.04.104.027.026.06.041.1.041h1.068v3.191a.137.137 0 0 0 .14.14h.547a.122.122 0 0 0 .099-.04.132.132 0 0 0 .035-.1v-3.19h1.068a.144.144 0 0 0 .105-.042.142.142 0 0 0 .04-.104v-.44a.127.127 0 0 0-.04-.098.144.144 0 0 0-.105-.041zm7.1 0a.137.137 0 0 0-.098.035c-.026.024-.036.056-.036.1v.227c0 .04.01.075.036.099.024.026.06.035.099.035h1.114v3.425c0 .039.015.069.041.093a.121.121 0 0 0 .094.041h.28a.143.143 0 0 0 .099-.04.121.121 0 0 0 .04-.094v-3.425h1.108c.04 0 .075-.009.1-.035.025-.024.035-.06.035-.1v-.227c0-.043-.012-.075-.036-.099-.022-.024-.056-.035-.099-.035zm3.659 0a.127.127 0 0 0-.094.035.139.139 0 0 0-.035.1v2.357c0 .544.138.95.409 1.22.27.269.657.401 1.155.401.499 0 .882-.132 1.15-.401.268-.27.402-.676.402-1.22v-2.358a.128.128 0 0 0-.041-.099.124.124 0 0 0-.093-.035h-.28a.134.134 0 0 0-.1.035.13.13 0 0 0-.033.1v2.369c-.002.375-.088.653-.263.84-.176.187-.42.28-.742.28-.325 0-.577-.09-.752-.275-.176-.184-.263-.466-.263-.845v-2.37a.128.128 0 0 0-.041-.099c-.025-.024-.056-.035-.1-.035zm4.085 0a.109.109 0 0 0-.088.035c-.024.024-.035.056-.035.1v3.786c0 .039.01.069.035.093a.107.107 0 0 0 .088.041h1.343c.388 0 .702-.058.939-.17.235-.112.409-.282.519-.511.11-.232.166-.527.173-.895.006-.115.008-.27.008-.46a9.58 9.58 0 0 0-.008-.449c-.007-.525-.143-.919-.401-1.178-.26-.262-.678-.392-1.26-.392zm3.985 0c-.04 0-.07.01-.094.035a.131.131 0 0 0-.035.094v3.792c0 .039.013.069.035.093a.121.121 0 0 0 .094.041h.29c.04 0 .07-.015.094-.04a.121.121 0 0 0 .041-.094v-3.792c0-.043-.01-.071-.035-.094a.136.136 0 0 0-.1-.035zm2.894.414c.31 0 .556.097.741.286.185.19.288.478.303.864.009.224.013.376.013.462 0 .076-.004.235-.013.466-.015.385-.118.67-.303.857-.185.187-.431.28-.741.28-.312 0-.562-.093-.747-.28-.185-.186-.286-.472-.297-.857a15.379 15.379 0 0 1-.006-.466c0-.198.002-.35.006-.462.011-.386.11-.674.297-.864.187-.189.439-.286.747-.286zm-6.459.058h.863c.401 0 .689.09.864.269.176.18.265.467.275.851.007.224.011.365.011.426 0 .06-.004.207-.011.439-.01.274-.047.487-.118.648a.678.678 0 0 1-.343.355c-.161.076-.378.112-.648.112h-.893z"/></g><g><path fill="#2d9d91" paint-order="markers stroke fill" d="M69.765-.076h64.823v132.584H69.765z"/><g fill="#fff"><path d="M87.81 49.304l7.61 6.354 1.364-1.908h10.813l-5.357 7.463-.052.07-.011.018-.023-.019-.03-.016-.005-.006-.024-.024-3.537-2.958-7.585 10.574-3.19 4.446h28.76l-7.609-6.349-1.365 1.903H96.756l5.357-7.458.053-.07.01-.017.023.016.03.02.006.005.024.022 3.536 2.952 7.585-10.572 3.191-4.446z" color="#000"/><path d="M93.914 78.957c-.528 0-.943.139-1.238.415-.293.276-.446.661-.466 1.156-.004.108-.006.278-.006.519 0 .235.002.409.006.513.02.503.175.89.466 1.162.293.27.706.407 1.238.407.344 0 .644-.062.898-.18.256-.119.456-.28.596-.485a1.26 1.26 0 0 0 .222-.689.107.107 0 0 0-.035-.088.123.123 0 0 0-.088-.033h-.56a.152.152 0 0 0-.105.033.232.232 0 0 0-.058.112c-.057.24-.158.41-.304.508-.144.1-.334.146-.566.146-.552 0-.84-.304-.864-.922-.004-.113-.006-.28-.006-.497 0-.215.002-.374.006-.478.024-.618.312-.928.864-.928.236 0 .424.048.566.147.144.097.247.267.304.506.015.054.034.09.058.112.023.02.058.036.105.036h.56c.032 0 .056-.015.082-.036.024-.022.041-.044.041-.076v-.011a1.26 1.26 0 0 0-.222-.69 1.43 1.43 0 0 0-.596-.483 2.124 2.124 0 0 0-.898-.176zm7.236 0c-.29 0-.54.045-.753.14a1.12 1.12 0 0 0-.483.39.946.946 0 0 0-.17.555.99.99 0 0 0 .134.538c.088.14.22.26.396.355.176.097.409.19.706.274.314.094.55.17.708.234.154.063.27.136.349.222a.472.472 0 0 1 .123.327.555.555 0 0 1-.247.478c-.162.115-.407.175-.733.175-.307 0-.544-.058-.706-.175a.699.699 0 0 1-.299-.42c-.026-.077-.076-.116-.146-.116h-.28a.123.123 0 0 0-.087.033.121.121 0 0 0-.036.083c.01.19.071.367.194.532.122.164.297.295.53.396.234.1.512.15.83.15.47 0 .844-.106 1.12-.307.274-.204.413-.484.414-.846a.947.947 0 0 0-.141-.532 1.056 1.056 0 0 0-.419-.344 4.472 4.472 0 0 0-.77-.28 6.364 6.364 0 0 1-.654-.222.886.886 0 0 1-.333-.228.5.5 0 0 1-.104-.332c0-.2.078-.353.233-.456.153-.1.36-.151.624-.151.242 0 .444.056.607.164.162.109.257.241.28.407.01.04.031.07.058.088.028.02.057.03.087.03h.286a.114.114 0 0 0 .088-.036.114.114 0 0 0 .035-.087.901.901 0 0 0-.18-.478 1.262 1.262 0 0 0-.484-.404 1.768 1.768 0 0 0-.777-.157zm16.717 0c-.482 0-.865.133-1.148.404-.286.269-.435.67-.45 1.195-.004.112-.006.272-.006.485 0 .211.002.38.006.495.015.534.156.932.431 1.197.274.265.665.396 1.167.396s.889-.13 1.161-.396c.273-.265.417-.663.432-1.197.007-.231.01-.4.01-.495 0-.1-.003-.261-.01-.485-.015-.525-.16-.926-.443-1.195-.282-.27-.666-.404-1.15-.404zm-32.787.058a.144.144 0 0 0-.105.041.134.134 0 0 0-.035.1v.408a.14.14 0 0 0 .14.146h1.897l-2.007 2.592c-.024.03-.047.056-.065.087a.245.245 0 0 0-.023.122v.414c0 .043.01.079.035.105a.137.137 0 0 0 .105.041h2.9a.14.14 0 0 0 .105-.041.14.14 0 0 0 .036-.1v-.42c0-.042-.011-.074-.036-.098a.151.151 0 0 0-.104-.036H85.96l1.962-2.608a.302.302 0 0 0 .074-.204v-.409a.127.127 0 0 0-.04-.099.144.144 0 0 0-.105-.04zm3.799 0a.128.128 0 0 0-.1.041.141.141 0 0 0-.04.1v3.775c0 .04.015.073.04.099a.13.13 0 0 0 .1.041h2.603a.144.144 0 0 0 .104-.041.122.122 0 0 0 .041-.1v-.395a.128.128 0 0 0-.04-.1.15.15 0 0 0-.105-.04h-1.95v-1.046h1.774a.144.144 0 0 0 .105-.04.122.122 0 0 0 .04-.1v-.367a.13.13 0 0 0-.04-.1.144.144 0 0 0-.105-.04h-1.774v-1.014h1.903a.152.152 0 0 0 .105-.042.127.127 0 0 0 .04-.098v-.393a.127.127 0 0 0-.04-.099.144.144 0 0 0-.105-.04zm7.265 0a.148.148 0 0 0-.106.041.136.136 0 0 0-.034.1v.438c0 .041.013.077.041.105.026.026.06.04.1.04h1.067v3.192c0 .04.013.073.04.099a.137.137 0 0 0 .1.041h.547a.122.122 0 0 0 .1-.041.132.132 0 0 0 .035-.1v-3.19h1.068a.144.144 0 0 0 .104-.041.142.142 0 0 0 .041-.105v-.439a.127.127 0 0 0-.04-.099.144.144 0 0 0-.105-.04zm7.101 0a.137.137 0 0 0-.099.036c-.026.024-.035.056-.035.099v.228c0 .039.009.074.035.099.024.026.06.035.1.035h1.114v3.425c0 .039.015.069.041.093a.121.121 0 0 0 .093.041h.28a.143.143 0 0 0 .1-.041.121.121 0 0 0 .04-.093v-3.425h1.108c.039 0 .074-.01.099-.035.026-.025.035-.06.035-.1v-.227c0-.043-.011-.075-.035-.1-.023-.023-.056-.035-.1-.035zm3.658 0a.127.127 0 0 0-.093.036.139.139 0 0 0-.036.099v2.358c0 .543.138.95.41 1.22.27.268.656.4 1.155.4.498 0 .881-.132 1.15-.4.267-.27.402-.677.402-1.22V79.15a.128.128 0 0 0-.041-.1.124.124 0 0 0-.094-.035h-.28a.134.134 0 0 0-.099.036.13.13 0 0 0-.034.099v2.37c-.001.375-.087.653-.263.84-.175.186-.42.28-.741.28-.325 0-.577-.09-.753-.275-.175-.185-.263-.467-.263-.846v-2.37a.128.128 0 0 0-.04-.098c-.025-.024-.057-.036-.1-.036zm4.086 0a.109.109 0 0 0-.088.036c-.025.024-.036.056-.036.099v3.787c0 .039.011.069.036.093a.107.107 0 0 0 .088.041h1.342c.388 0 .702-.058.94-.17.235-.112.408-.282.518-.512.11-.231.167-.526.174-.894.006-.116.007-.27.007-.461a9.58 9.58 0 0 0-.007-.448c-.007-.525-.144-.919-.401-1.179-.26-.26-.678-.392-1.26-.392zm3.984 0c-.04 0-.069.012-.093.036a.131.131 0 0 0-.036.093v3.793c0 .039.013.069.036.093a.121.121 0 0 0 .093.041h.291c.04 0 .07-.015.094-.041a.121.121 0 0 0 .04-.093v-3.793c0-.043-.01-.07-.035-.093a.136.136 0 0 0-.099-.036zm2.894.415c.31 0 .557.097.742.286.184.19.287.478.302.864.01.224.013.375.013.461 0 .077-.004.236-.013.467-.015.385-.118.67-.302.857-.185.187-.432.28-.742.28-.311 0-.562-.093-.747-.28-.184-.187-.285-.472-.296-.857a15.379 15.379 0 0 1-.006-.467c0-.198.002-.349.006-.46.01-.387.11-.675.296-.865.187-.189.44-.286.747-.286zm-6.458.058h.862c.402 0 .69.09.865.269.175.179.265.466.274.851.008.224.011.364.011.426 0 .06-.003.207-.01.439-.01.274-.047.487-.118.648a.678.678 0 0 1-.344.354c-.16.077-.377.112-.648.112h-.892z" style="text-align:center"/></g></g><g><path fill="#1a87b8" paint-order="markers stroke fill" d="M145.377-.076H210.2v46.774h-64.823z"/><g fill="#fff"><path d="M165.281 8.588l6.624 5.531 1.189-1.661h9.413l-4.663 6.497-.046.06-.01.017-.02-.016-.025-.015-.005-.005-.021-.021-3.079-2.575-6.603 9.206-2.778 3.87h25.039l-6.625-5.527-1.188 1.657h-9.414l4.664-6.493.046-.062.01-.014.019.014.026.017.005.005.02.019 3.08 2.57 6.603-9.204 2.778-3.87z" color="#000"/><path style="text-align:center" d="M170.595 34.403c-.46 0-.82.12-1.078.361-.255.24-.388.576-.406 1.006-.003.095-.005.243-.005.452 0 .205.002.356.005.447.018.438.153.774.406 1.012.256.235.615.354 1.078.354.3 0 .561-.054.782-.156.223-.104.397-.244.519-.423s.187-.377.193-.6a.093.093 0 0 0-.03-.076.107.107 0 0 0-.077-.03h-.488a.133.133 0 0 0-.09.03.202.202 0 0 0-.051.098c-.05.208-.138.356-.265.442-.125.086-.291.126-.493.126-.481 0-.731-.265-.752-.803a14.21 14.21 0 0 1-.005-.432c0-.187.001-.325.005-.416.02-.538.271-.808.752-.808.205 0 .37.042.493.128.125.085.214.233.265.44.013.048.029.079.05.098.02.018.05.031.091.031h.488c.027 0 .049-.013.071-.03.021-.02.036-.04.036-.067v-.01a1.097 1.097 0 0 0-.193-.6 1.245 1.245 0 0 0-.519-.42 1.849 1.849 0 0 0-.782-.154zm6.3 0c-.253 0-.47.04-.656.122a.975.975 0 0 0-.42.34.823.823 0 0 0-.149.483c0 .188.04.344.117.468a.905.905 0 0 0 .345.309c.153.084.356.166.614.239.273.081.48.148.616.203a.83.83 0 0 1 .304.193c.069.075.108.171.108.285a.483.483 0 0 1-.215.416c-.141.1-.354.153-.639.153-.266 0-.473-.05-.614-.153a.609.609 0 0 1-.26-.366c-.023-.066-.067-.1-.127-.1h-.244c-.03 0-.055.01-.076.029a.106.106 0 0 0-.031.071c.008.166.062.32.169.464.106.143.258.256.462.344.203.088.445.132.721.132.41 0 .735-.093.976-.268a.87.87 0 0 0 .36-.737.824.824 0 0 0-.123-.463.92.92 0 0 0-.364-.3 3.893 3.893 0 0 0-.672-.243 5.54 5.54 0 0 1-.568-.193.772.772 0 0 1-.29-.199.435.435 0 0 1-.09-.289c0-.174.067-.307.202-.397.134-.087.314-.131.543-.131.212 0 .387.048.529.143.141.094.224.21.243.354.01.034.028.06.05.076.025.018.051.026.077.026h.249a.1.1 0 0 0 .076-.03.1.1 0 0 0 .031-.077.784.784 0 0 0-.157-.416 1.099 1.099 0 0 0-.421-.351 1.54 1.54 0 0 0-.677-.137zm14.553 0c-.42 0-.753.116-1 .351-.248.235-.378.584-.391 1.04a13.63 13.63 0 0 0-.005.424c0 .183.001.33.005.43.013.465.136.811.375 1.042.24.231.579.345 1.016.345.437 0 .774-.114 1.011-.345.238-.23.363-.577.376-1.042.006-.201.01-.348.01-.43 0-.088-.004-.228-.01-.423-.013-.457-.14-.806-.386-1.04-.245-.236-.58-.352-1-.352zm-28.543.05a.125.125 0 0 0-.092.037.116.116 0 0 0-.03.086v.356a.122.122 0 0 0 .122.126h1.65l-1.747 2.257c-.02.026-.04.049-.056.076a.213.213 0 0 0-.02.106v.36c0 .038.008.069.03.092a.12.12 0 0 0 .092.036h2.525a.121.121 0 0 0 .091-.036.122.122 0 0 0 .03-.086v-.366c0-.038-.009-.065-.03-.086a.132.132 0 0 0-.091-.031h-1.708l1.708-2.271a.262.262 0 0 0 .065-.177v-.356a.11.11 0 0 0-.036-.086.125.125 0 0 0-.09-.036zm3.306 0a.111.111 0 0 0-.086.037.123.123 0 0 0-.036.086v3.287c0 .034.013.063.036.086a.113.113 0 0 0 .086.036h2.266a.125.125 0 0 0 .091-.036.106.106 0 0 0 .036-.086v-.345a.112.112 0 0 0-.036-.088.13.13 0 0 0-.09-.034h-1.698v-.91h1.545a.125.125 0 0 0 .09-.036.106.106 0 0 0 .036-.086v-.32a.113.113 0 0 0-.035-.087.125.125 0 0 0-.091-.035h-1.545v-.883h1.657a.132.132 0 0 0 .09-.036.11.11 0 0 0 .037-.086v-.341a.11.11 0 0 0-.036-.086.125.125 0 0 0-.091-.036zm6.325 0a.129.129 0 0 0-.092.037.118.118 0 0 0-.03.086v.382c0 .035.012.066.036.09a.119.119 0 0 0 .086.036h.93v2.779a.119.119 0 0 0 .122.122h.476a.106.106 0 0 0 .087-.036.115.115 0 0 0 .03-.086v-2.779h.93a.125.125 0 0 0 .091-.035.124.124 0 0 0 .036-.091v-.382a.11.11 0 0 0-.036-.086.125.125 0 0 0-.09-.036zm6.183 0a.12.12 0 0 0-.087.032c-.022.02-.03.048-.03.086v.198c0 .034.008.065.03.086.022.023.052.031.087.031h.97v2.981c0 .035.013.06.036.082a.106.106 0 0 0 .081.036h.244a.125.125 0 0 0 .086-.036.106.106 0 0 0 .036-.082v-2.98h.964c.034 0 .065-.009.086-.032.023-.02.03-.052.03-.086v-.198c0-.038-.009-.065-.03-.086-.02-.021-.049-.031-.086-.031zm3.184 0a.11.11 0 0 0-.081.032.121.121 0 0 0-.031.086v2.053c0 .473.12.827.356 1.061.236.235.572.35 1.006.35.434 0 .767-.115 1.001-.35.233-.234.35-.588.35-1.061V34.57a.111.111 0 0 0-.036-.086.108.108 0 0 0-.081-.031h-.244a.117.117 0 0 0-.086.03.114.114 0 0 0-.03.087v2.063c-.001.326-.076.569-.229.731-.152.163-.365.244-.645.244-.283 0-.502-.078-.655-.239-.153-.16-.23-.406-.23-.736V34.57a.111.111 0 0 0-.035-.086c-.021-.021-.049-.031-.086-.031zm3.557 0a.095.095 0 0 0-.077.032c-.02.02-.03.048-.03.086v3.296c0 .035.01.06.03.082.02.023.043.036.077.036h1.169c.338 0 .61-.05.817-.148a.926.926 0 0 0 .452-.446c.096-.201.145-.458.151-.778.005-.101.007-.236.007-.402a8.34 8.34 0 0 0-.007-.39c-.006-.457-.125-.8-.35-1.026-.225-.227-.59-.341-1.096-.341zm3.469 0c-.034 0-.06.01-.081.032a.114.114 0 0 0-.031.08v3.302c0 .035.011.06.03.082a.106.106 0 0 0 .082.036h.253c.035 0 .06-.013.082-.036a.106.106 0 0 0 .035-.082v-3.301c0-.037-.01-.062-.03-.081a.118.118 0 0 0-.087-.031zm2.52.362c.27 0 .484.084.645.248.16.166.25.417.263.753.008.195.012.327.012.402 0 .066-.004.204-.012.406-.013.335-.102.584-.263.746-.161.163-.376.244-.646.244-.271 0-.489-.081-.65-.244-.16-.162-.248-.411-.258-.746a13.388 13.388 0 0 1 0-.808c.01-.336.096-.587.258-.753.163-.164.382-.248.65-.248zm-5.623.05h.75c.35 0 .6.078.753.234.153.156.231.407.24.741.006.195.009.317.009.371 0 .052-.003.18-.01.382-.008.239-.04.424-.102.564a.59.59 0 0 1-.3.309c-.14.067-.328.098-.563.098h-.777z"/></g></g><g><path fill="#ca2333" paint-order="markers stroke fill" d="M145.377 79.053H210.2v75.612h-64.823z"/><g fill="#fff"><path d="M165.281 102.135l6.624 5.532 1.189-1.661h9.413l-4.663 6.497-.046.06-.01.016-.02-.016-.025-.015-.005-.004-.021-.022-3.079-2.574-6.603 9.205-2.778 3.87h25.039l-6.625-5.526-1.188 1.656h-9.414l4.664-6.492.046-.062.01-.015.019.015.026.016.005.005.02.02 3.08 2.57 6.603-9.204 2.778-3.871z" color="#000"/><path d="M170.595 127.95c-.46 0-.82.121-1.078.362-.255.24-.388.575-.406 1.006-.003.094-.005.242-.005.452 0 .205.002.356.005.447.018.437.153.774.406 1.011.256.236.615.354 1.078.354.3 0 .561-.053.782-.156.223-.104.397-.243.519-.422.122-.18.187-.377.193-.6a.093.093 0 0 0-.03-.077.107.107 0 0 0-.077-.029h-.488a.133.133 0 0 0-.09.03.202.202 0 0 0-.051.097c-.05.208-.138.356-.265.442-.125.086-.291.127-.493.127-.481 0-.731-.265-.752-.803a14.21 14.21 0 0 1-.005-.432c0-.187.001-.326.005-.417.02-.538.271-.808.752-.808.205 0 .37.043.493.129.125.084.214.232.265.44.013.048.029.078.05.098.02.018.05.03.091.03h.488c.027 0 .049-.012.071-.03.021-.02.036-.04.036-.067v-.01a1.097 1.097 0 0 0-.193-.6 1.245 1.245 0 0 0-.519-.42 1.849 1.849 0 0 0-.782-.153zm6.3 0c-.253 0-.47.04-.656.123a.975.975 0 0 0-.42.34.823.823 0 0 0-.149.482c0 .189.04.345.117.469a.905.905 0 0 0 .345.308c.153.085.356.166.614.24.273.08.48.147.616.203a.83.83 0 0 1 .304.193c.069.075.108.17.108.284a.483.483 0 0 1-.215.417c-.141.1-.354.152-.639.152-.266 0-.473-.05-.614-.152a.609.609 0 0 1-.26-.366c-.023-.067-.067-.101-.127-.101h-.244c-.03 0-.055.01-.076.03a.106.106 0 0 0-.031.07c.008.167.062.321.169.464.106.143.258.257.462.345.203.088.445.131.721.131.41 0 .735-.092.976-.268a.87.87 0 0 0 .36-.736.824.824 0 0 0-.123-.463.92.92 0 0 0-.364-.3 3.893 3.893 0 0 0-.672-.243 5.54 5.54 0 0 1-.568-.194.772.772 0 0 1-.29-.198.435.435 0 0 1-.09-.29c0-.173.067-.307.202-.396.134-.088.314-.132.543-.132.212 0 .387.049.529.143.141.094.224.21.243.355.01.034.028.06.05.076.025.018.051.026.077.026h.249a.1.1 0 0 0 .076-.03.1.1 0 0 0 .031-.077.784.784 0 0 0-.157-.416 1.099 1.099 0 0 0-.421-.352 1.54 1.54 0 0 0-.677-.136zm14.553 0c-.42 0-.753.116-1 .352-.248.234-.378.584-.391 1.04a13.63 13.63 0 0 0-.005.423c0 .184.001.33.005.43.013.466.136.812.375 1.043.24.23.579.344 1.016.344.437 0 .774-.113 1.011-.344.238-.231.363-.577.376-1.042.006-.202.01-.348.01-.431 0-.088-.004-.228-.01-.423-.013-.456-.14-.806-.386-1.04-.245-.236-.58-.351-1-.351zm-28.543.051a.125.125 0 0 0-.092.036.116.116 0 0 0-.03.086v.356a.122.122 0 0 0 .122.127h1.65l-1.747 2.256c-.02.026-.04.05-.056.077a.213.213 0 0 0-.02.105v.361c0 .038.008.069.03.091a.12.12 0 0 0 .092.036h2.525a.121.121 0 0 0 .091-.036.122.122 0 0 0 .03-.086v-.366c0-.037-.009-.065-.03-.086a.132.132 0 0 0-.091-.03h-1.708l1.708-2.272a.262.262 0 0 0 .065-.177v-.356a.11.11 0 0 0-.036-.086.125.125 0 0 0-.09-.036zm3.306 0a.111.111 0 0 0-.086.036.123.123 0 0 0-.036.086v3.287c0 .034.013.064.036.086a.113.113 0 0 0 .086.036h2.266a.125.125 0 0 0 .091-.036.106.106 0 0 0 .036-.086v-.345a.112.112 0 0 0-.036-.087.13.13 0 0 0-.09-.034h-1.698v-.91h1.545a.125.125 0 0 0 .09-.037.106.106 0 0 0 .036-.086v-.32a.113.113 0 0 0-.035-.086.125.125 0 0 0-.091-.036h-1.545v-.883h1.657a.132.132 0 0 0 .09-.035.11.11 0 0 0 .037-.086v-.342a.11.11 0 0 0-.036-.086.125.125 0 0 0-.091-.036zm6.325 0a.129.129 0 0 0-.092.036.118.118 0 0 0-.03.086v.382c0 .036.012.067.036.091a.119.119 0 0 0 .086.036h.93v2.778a.119.119 0 0 0 .122.122h.476a.106.106 0 0 0 .087-.036.115.115 0 0 0 .03-.086v-2.778h.93a.125.125 0 0 0 .091-.036.124.124 0 0 0 .036-.09v-.383a.11.11 0 0 0-.036-.086.125.125 0 0 0-.09-.036zm6.183 0a.12.12 0 0 0-.087.031c-.022.021-.03.049-.03.086v.199c0 .034.008.065.03.086.022.023.052.03.087.03h.97v2.982c0 .034.013.06.036.081a.106.106 0 0 0 .081.036h.244a.125.125 0 0 0 .086-.036.106.106 0 0 0 .036-.081v-2.981h.964c.034 0 .065-.008.086-.031.023-.021.03-.052.03-.086v-.199c0-.037-.009-.065-.03-.086-.02-.021-.049-.03-.086-.03zm3.184 0a.11.11 0 0 0-.081.031.121.121 0 0 0-.031.086v2.053c0 .473.12.828.356 1.062.236.234.572.35 1.006.35.434 0 .767-.116 1.001-.35.233-.234.35-.589.35-1.062v-2.053a.111.111 0 0 0-.036-.086.108.108 0 0 0-.081-.03h-.244a.117.117 0 0 0-.086.03.114.114 0 0 0-.03.086v2.063c-.001.327-.076.57-.229.732-.152.162-.365.244-.645.244-.283 0-.502-.079-.655-.24-.153-.16-.23-.406-.23-.736v-2.063a.111.111 0 0 0-.035-.086c-.021-.021-.049-.03-.086-.03zm3.557 0a.095.095 0 0 0-.077.031c-.02.021-.03.049-.03.086v3.297c0 .034.01.06.03.081.02.023.043.036.077.036h1.169c.338 0 .61-.05.817-.148a.926.926 0 0 0 .452-.445c.096-.202.145-.459.151-.779.005-.1.007-.236.007-.401a8.34 8.34 0 0 0-.007-.39c-.006-.457-.125-.8-.35-1.026-.225-.228-.59-.342-1.096-.342zm3.469 0c-.034 0-.06.01-.081.031a.114.114 0 0 0-.031.081v3.302c0 .034.011.06.03.081a.106.106 0 0 0 .082.036h.253c.035 0 .06-.013.082-.036a.106.106 0 0 0 .035-.081v-3.302c0-.037-.01-.061-.03-.08a.118.118 0 0 0-.087-.032zm2.52.361c.27 0 .484.085.645.249.16.166.25.416.263.753.008.195.012.326.012.401 0 .067-.004.205-.012.406-.013.335-.102.584-.263.747-.161.162-.376.243-.646.243-.271 0-.489-.08-.65-.243-.16-.163-.248-.412-.258-.747a13.388 13.388 0 0 1 0-.807c.01-.337.096-.587.258-.753.163-.164.382-.249.65-.249zm-5.623.05h.75c.35 0 .6.079.753.235.153.156.231.406.24.74.006.196.009.318.009.372 0 .052-.003.18-.01.382-.008.238-.04.424-.102.564a.59.59 0 0 1-.3.308c-.14.067-.328.098-.563.098h-.777z" style="text-align:center"/></g></g><g><path fill="#bf4b01" paint-order="markers stroke fill" d="M69.765 151.851h64.823v92.492H69.765z"/><g fill="#fff"><path d="M89.67 183.374l6.624 5.531 1.188-1.66h9.414l-4.664 6.497-.046.06-.01.016-.019-.016-.026-.015-.005-.005-.02-.02-3.08-2.576-6.603 9.206-2.778 3.87h25.039l-6.624-5.527-1.189 1.657h-9.413l4.663-6.493.046-.062.01-.014.02.014.025.017.005.005.021.02 3.08 2.57 6.602-9.205 2.778-3.87z" color="#000"/><path style="text-align:center" d="M94.983 209.19c-.46 0-.82.12-1.077.36-.255.24-.389.576-.407 1.007-.003.094-.005.242-.005.451 0 .205.002.357.005.448.018.437.153.773.407 1.01.255.236.614.355 1.077.355.3 0 .561-.054.782-.156.223-.104.397-.244.519-.423.122-.178.187-.377.193-.6a.093.093 0 0 0-.03-.076.107.107 0 0 0-.077-.03h-.488a.133.133 0 0 0-.09.03.202.202 0 0 0-.051.098c-.05.208-.138.356-.265.442-.125.086-.29.127-.493.127-.48 0-.731-.265-.752-.803a14.21 14.21 0 0 1-.005-.433c0-.187.002-.325.005-.416.021-.538.271-.808.752-.808.205 0 .37.042.493.128.125.085.215.233.265.441.013.047.03.078.05.098.02.017.05.03.091.03h.488c.028 0 .049-.013.072-.03.02-.02.035-.04.035-.067v-.01a1.097 1.097 0 0 0-.193-.6 1.245 1.245 0 0 0-.519-.42 1.849 1.849 0 0 0-.782-.154zm6.3 0c-.252 0-.47.038-.655.121a.975.975 0 0 0-.422.34.823.823 0 0 0-.147.483c0 .189.039.345.117.468a.905.905 0 0 0 .344.309c.153.084.356.166.615.239.273.081.48.148.616.203a.83.83 0 0 1 .304.194c.068.074.107.17.107.284a.483.483 0 0 1-.215.416c-.14.101-.354.153-.638.153-.267 0-.473-.05-.615-.153a.609.609 0 0 1-.26-.366c-.023-.066-.067-.1-.127-.1h-.244c-.03 0-.055.01-.076.029a.106.106 0 0 0-.03.071c.007.166.06.32.168.464.106.143.259.257.462.344.203.088.445.132.722.132.41 0 .734-.093.975-.268a.87.87 0 0 0 .36-.737.824.824 0 0 0-.123-.463.92.92 0 0 0-.364-.299 3.893 3.893 0 0 0-.671-.244 5.54 5.54 0 0 1-.57-.193.772.772 0 0 1-.288-.199.435.435 0 0 1-.092-.289c0-.174.069-.307.204-.397.133-.087.313-.131.543-.131.211 0 .387.049.528.143.141.094.224.21.244.354.01.034.027.06.05.077.025.017.05.026.077.026h.248a.1.1 0 0 0 .077-.031.1.1 0 0 0 .03-.077.784.784 0 0 0-.157-.416 1.099 1.099 0 0 0-.421-.351 1.54 1.54 0 0 0-.676-.137zm14.553 0c-.419 0-.752.115-1 .35s-.378.584-.391 1.041a13.63 13.63 0 0 0-.005.423c0 .183.002.33.005.43.013.465.137.812.375 1.042.24.231.58.345 1.016.345.438 0 .774-.114 1.012-.345.237-.23.362-.577.375-1.042.007-.201.01-.347.01-.43 0-.088-.003-.228-.01-.423-.013-.457-.14-.806-.385-1.04-.246-.236-.58-.352-1.002-.352zm-28.543.05a.125.125 0 0 0-.092.036.116.116 0 0 0-.03.086v.356a.122.122 0 0 0 .122.127h1.65l-1.747 2.256c-.02.026-.04.049-.056.076a.213.213 0 0 0-.02.106v.36c0 .038.009.07.03.092a.12.12 0 0 0 .092.036h2.525a.121.121 0 0 0 .091-.036.122.122 0 0 0 .031-.086v-.366c0-.037-.01-.065-.03-.086a.132.132 0 0 0-.092-.031H88.06l1.707-2.271a.262.262 0 0 0 .065-.177v-.356a.11.11 0 0 0-.035-.086.125.125 0 0 0-.091-.036zm3.307 0a.111.111 0 0 0-.087.036.123.123 0 0 0-.035.086v3.287c0 .034.013.063.035.086a.113.113 0 0 0 .087.036h2.266a.125.125 0 0 0 .09-.036.106.106 0 0 0 .036-.086v-.345a.112.112 0 0 0-.035-.088.13.13 0 0 0-.091-.034h-1.697v-.91h1.544a.125.125 0 0 0 .09-.036.106.106 0 0 0 .037-.086v-.32a.113.113 0 0 0-.036-.086.125.125 0 0 0-.091-.036h-1.544v-.883h1.656a.132.132 0 0 0 .091-.036.11.11 0 0 0 .036-.086v-.341a.11.11 0 0 0-.036-.086.125.125 0 0 0-.091-.036zm6.325 0a.129.129 0 0 0-.093.036.118.118 0 0 0-.03.086v.382c0 .036.012.066.037.09a.119.119 0 0 0 .086.037h.93v2.778a.119.119 0 0 0 .122.122h.476a.106.106 0 0 0 .086-.036.115.115 0 0 0 .03-.086v-2.778h.93a.125.125 0 0 0 .092-.036.124.124 0 0 0 .035-.091v-.382a.11.11 0 0 0-.035-.086.125.125 0 0 0-.091-.036zm6.182 0a.12.12 0 0 0-.086.03c-.023.022-.031.05-.031.087v.198c0 .034.008.065.03.086.022.023.053.031.087.031h.97v2.982c0 .034.013.06.036.08a.106.106 0 0 0 .081.037h.244a.125.125 0 0 0 .086-.036.106.106 0 0 0 .036-.081v-2.982h.964c.034 0 .065-.008.086-.03.023-.022.031-.053.031-.087v-.198c0-.037-.01-.065-.03-.086-.02-.021-.05-.031-.087-.031zm3.184 0a.11.11 0 0 0-.08.03.121.121 0 0 0-.032.087v2.053c0 .473.12.827.356 1.062.236.234.572.349 1.006.349.434 0 .768-.115 1.002-.35.232-.234.35-.588.35-1.061v-2.053a.111.111 0 0 0-.036-.086.108.108 0 0 0-.082-.031h-.244a.117.117 0 0 0-.086.03.114.114 0 0 0-.029.087v2.063c-.002.327-.076.569-.23.731-.152.163-.365.244-.645.244-.282 0-.502-.078-.655-.239-.152-.16-.229-.406-.229-.736v-2.063a.111.111 0 0 0-.036-.086c-.02-.021-.048-.031-.086-.031zm3.557 0a.095.095 0 0 0-.076.03c-.021.022-.031.05-.031.087v3.297c0 .034.01.06.03.08.02.024.043.037.077.037h1.169c.338 0 .611-.05.818-.148a.926.926 0 0 0 .452-.446c.095-.201.144-.458.15-.778.006-.101.007-.236.007-.402a8.34 8.34 0 0 0-.006-.39c-.007-.457-.125-.8-.35-1.026-.226-.227-.59-.341-1.097-.341zm3.47 0c-.035 0-.061.01-.082.03a.114.114 0 0 0-.031.082v3.302c0 .034.011.06.03.08a.106.106 0 0 0 .082.037h.254c.034 0 .06-.013.081-.036a.106.106 0 0 0 .036-.081v-3.302c0-.037-.01-.062-.031-.081a.118.118 0 0 0-.086-.031zm2.519.36c.27 0 .484.085.645.25.161.165.25.416.263.752.009.195.012.327.012.402 0 .066-.003.204-.012.406-.013.335-.102.584-.263.746-.16.163-.375.244-.645.244-.272 0-.49-.081-.65-.244-.161-.162-.25-.411-.259-.746a13.388 13.388 0 0 1 0-.808c.01-.336.096-.587.259-.753.162-.164.382-.248.65-.248zm-5.623.051h.75c.35 0 .6.078.754.234.152.156.23.407.239.741.006.196.01.317.01.371 0 .052-.004.18-.01.382-.009.24-.041.424-.103.564a.59.59 0 0 1-.299.31c-.14.066-.328.097-.564.097h-.777z"/></g></g><g><path fill="#e15361" paint-order="markers stroke fill" d="M145.377 178.227H210.2v75.612h-64.823z"/><g fill="#fff"><path d="M165.281 201.31l6.624 5.531 1.189-1.661h9.413l-4.663 6.497-.046.06-.01.017-.02-.016-.025-.015-.005-.005-.021-.021-3.079-2.575-6.603 9.206-2.778 3.87h25.039l-6.625-5.527-1.188 1.657h-9.414l4.664-6.493.046-.062.01-.014.019.014.026.017.005.004.02.02 3.08 2.57 6.603-9.204 2.778-3.87z" color="#000"/><path d="M170.595 227.125c-.46 0-.82.12-1.078.361-.255.24-.388.576-.406 1.006-.003.095-.005.243-.005.452 0 .205.002.356.005.447.018.438.153.774.406 1.011.256.236.615.355 1.078.355.3 0 .561-.054.782-.156.223-.104.397-.244.519-.423s.187-.377.193-.6a.093.093 0 0 0-.03-.076.107.107 0 0 0-.077-.03h-.488a.133.133 0 0 0-.09.03.202.202 0 0 0-.051.097c-.05.208-.138.356-.265.443-.125.086-.291.126-.493.126-.481 0-.731-.265-.752-.803a14.21 14.21 0 0 1-.005-.432c0-.187.001-.325.005-.416.02-.538.271-.808.752-.808.205 0 .37.042.493.128.125.085.214.233.265.44.013.048.029.079.05.098.02.018.05.031.091.031h.488c.027 0 .049-.013.071-.03.021-.02.036-.04.036-.067v-.01a1.097 1.097 0 0 0-.193-.6 1.245 1.245 0 0 0-.519-.42 1.849 1.849 0 0 0-.782-.154zm6.3 0c-.253 0-.47.04-.656.122a.975.975 0 0 0-.42.34.823.823 0 0 0-.149.483c0 .188.04.344.117.468a.905.905 0 0 0 .345.309c.153.084.356.166.614.239.273.081.48.148.616.203a.83.83 0 0 1 .304.193c.069.075.108.171.108.285a.483.483 0 0 1-.215.416c-.141.1-.354.153-.639.153-.266 0-.473-.05-.614-.153a.609.609 0 0 1-.26-.366c-.023-.066-.067-.1-.127-.1h-.244c-.03 0-.055.01-.076.029a.106.106 0 0 0-.031.071c.008.166.062.32.169.464.106.143.258.256.462.344.203.088.445.132.721.132.41 0 .735-.093.976-.268a.87.87 0 0 0 .36-.737.824.824 0 0 0-.123-.463.92.92 0 0 0-.364-.3 3.893 3.893 0 0 0-.672-.243 5.54 5.54 0 0 1-.568-.193.772.772 0 0 1-.29-.199.435.435 0 0 1-.09-.29c0-.173.067-.306.202-.396.134-.088.314-.131.543-.131.212 0 .387.048.529.143.141.094.224.21.243.354.01.034.028.06.05.076.025.018.051.026.077.026h.249a.1.1 0 0 0 .076-.03.1.1 0 0 0 .031-.077.784.784 0 0 0-.157-.416 1.099 1.099 0 0 0-.421-.351 1.54 1.54 0 0 0-.677-.137zm14.553 0c-.42 0-.753.116-1 .351-.248.234-.378.584-.391 1.04a13.63 13.63 0 0 0-.005.423c0 .184.001.33.005.431.013.465.136.811.375 1.042.24.231.579.345 1.016.345.437 0 .774-.114 1.011-.345.238-.23.363-.577.376-1.042.006-.201.01-.348.01-.43 0-.088-.004-.228-.01-.423-.013-.457-.14-.807-.386-1.04-.245-.236-.58-.352-1-.352zm-28.543.05a.125.125 0 0 0-.092.036.116.116 0 0 0-.03.087v.356a.122.122 0 0 0 .122.126h1.65l-1.747 2.257c-.02.026-.04.048-.056.076a.213.213 0 0 0-.02.106v.36c0 .038.008.069.03.092a.12.12 0 0 0 .092.035h2.525a.121.121 0 0 0 .091-.035.122.122 0 0 0 .03-.086v-.366c0-.038-.009-.065-.03-.086a.132.132 0 0 0-.091-.031h-1.708l1.708-2.271a.262.262 0 0 0 .065-.177v-.356a.11.11 0 0 0-.036-.087.125.125 0 0 0-.09-.035zm3.306 0a.111.111 0 0 0-.086.036.123.123 0 0 0-.036.087v3.287c0 .034.013.063.036.086a.113.113 0 0 0 .086.035h2.266a.125.125 0 0 0 .091-.035.106.106 0 0 0 .036-.086v-.345a.112.112 0 0 0-.036-.088.13.13 0 0 0-.09-.034h-1.698v-.91h1.545a.125.125 0 0 0 .09-.036.106.106 0 0 0 .036-.086v-.32a.113.113 0 0 0-.035-.087.125.125 0 0 0-.091-.035h-1.545v-.883h1.657a.132.132 0 0 0 .09-.036.11.11 0 0 0 .037-.086v-.341a.11.11 0 0 0-.036-.087.125.125 0 0 0-.091-.035zm6.325 0a.129.129 0 0 0-.092.036.118.118 0 0 0-.03.087v.382c0 .035.012.066.036.09a.119.119 0 0 0 .086.036h.93v2.779a.119.119 0 0 0 .122.122h.476a.106.106 0 0 0 .087-.036.115.115 0 0 0 .03-.086v-2.779h.93a.125.125 0 0 0 .091-.035.124.124 0 0 0 .036-.091v-.382a.11.11 0 0 0-.036-.087.125.125 0 0 0-.09-.035zm6.183 0a.12.12 0 0 0-.087.032c-.022.02-.03.048-.03.086v.198c0 .034.008.065.03.086.022.023.052.031.087.031h.97v2.981c0 .035.013.06.036.082a.106.106 0 0 0 .081.035h.244a.125.125 0 0 0 .086-.035.106.106 0 0 0 .036-.082v-2.98h.964c.034 0 .065-.01.086-.032.023-.02.03-.052.03-.086v-.198c0-.038-.009-.065-.03-.086-.02-.022-.049-.031-.086-.031zm3.184 0a.11.11 0 0 0-.081.032.121.121 0 0 0-.031.086v2.053c0 .473.12.827.356 1.061.236.234.572.35 1.006.35.434 0 .767-.116 1.001-.35.233-.234.35-.588.35-1.061v-2.053a.111.111 0 0 0-.036-.086.108.108 0 0 0-.081-.031h-.244a.117.117 0 0 0-.086.03.114.114 0 0 0-.03.087v2.063c-.001.326-.076.569-.229.731-.152.163-.365.244-.645.244-.283 0-.502-.078-.655-.239-.153-.161-.23-.406-.23-.736v-2.063a.111.111 0 0 0-.035-.086c-.021-.022-.049-.031-.086-.031zm3.557 0a.095.095 0 0 0-.077.032c-.02.02-.03.048-.03.086v3.296c0 .035.01.06.03.082.02.022.043.035.077.035h1.169c.338 0 .61-.05.817-.147a.926.926 0 0 0 .452-.446c.096-.201.145-.458.151-.779.005-.1.007-.235.007-.401a8.34 8.34 0 0 0-.007-.39c-.006-.457-.125-.8-.35-1.026-.225-.228-.59-.341-1.096-.341zm3.469 0c-.034 0-.06.01-.081.032a.114.114 0 0 0-.031.08v3.302c0 .035.011.06.03.082a.106.106 0 0 0 .082.035h.253c.035 0 .06-.013.082-.035a.106.106 0 0 0 .035-.082v-3.301c0-.038-.01-.062-.03-.081a.118.118 0 0 0-.087-.031zm2.52.362c.27 0 .484.084.645.248.16.166.25.416.263.753.008.195.012.327.012.401 0 .067-.004.205-.012.407-.013.335-.102.583-.263.746-.161.163-.376.244-.646.244-.271 0-.489-.081-.65-.244-.16-.163-.248-.411-.258-.746a13.388 13.388 0 0 1 0-.808c.01-.337.096-.587.258-.753.163-.164.382-.248.65-.248zm-5.623.05h.75c.35 0 .6.078.753.234.153.156.231.406.24.741.006.195.009.317.009.37 0 .053-.003.181-.01.383-.008.239-.04.424-.102.564a.59.59 0 0 1-.3.309c-.14.067-.328.097-.563.097h-.777z" style="text-align:center"/></g></g></svg>