<svg xmlns="http://www.w3.org/2000/svg" width="134.297" height="41.396" viewBox="0 0 35.533 10.953"><defs><filter height="1.235" y="-.118" width="1.235" x="-.118" id="a" color-interpolation-filters="sRGB"><feGaussianBlur stdDeviation="24.645"/></filter></defs><g stroke-width=".553"><g style="line-height:423.19586182px;-inkscape-font-specification:'Inter UI Ultra-Bold';font-variant-ligatures:normal;font-variant-position:normal;font-variant-caps:normal;font-variant-numeric:normal;font-variant-alternates:normal;font-feature-settings:normal;text-indent:0;text-align:center;text-decoration-line:none;text-decoration-style:solid;text-decoration-color:#000;text-transform:none;text-orientation:mixed;white-space:normal;shape-padding:0"><path style="-inkscape-font-specification:'Inter UI Ultra-Bold'" d="M12.235 3.366l-.7 4.22h.993l.437-2.606H13l.585 2.58h.632l1.439-2.566h.035l-.43 2.592h.992l.7-4.22h-1.262L14.186 5.98h-.049l-.639-2.613zm8.983 2.176c.235-1.424-.535-2.234-1.696-2.234-1.112 0-2.089.75-2.312 2.115-.234 1.417.536 2.221 1.705 2.221 1.102 0 2.075-.738 2.303-2.102zm-1.02-.12c-.142.85-.61 1.328-1.246 1.328-.573 0-.864-.404-.722-1.208.136-.849.608-1.34 1.253-1.34.58 0 .843.425.715 1.22zm1.261 2.164h3.339l.14-.828H22.88l2.522-2.81.097-.582h-3.338l-.14.829h2.054l-2.518 2.81zm3.97 0h2.943l.14-.828h-1.923l.14-.868h1.773l.14-.83H26.87l.14-.865h1.922l.14-.829H26.13zm5.611-4.22h-1.028l-.39 2.928h.841zM29.874 7.64c.3 0 .556-.22.581-.495.023-.276-.194-.494-.488-.494-.295 0-.557.218-.581.494-.023.274.2.495.488.495z" font-style="italic" font-size="124.952" font-weight="800" aria-label="MOZELUP!" font-family="Inter UI" text-anchor="middle" fill="#163e69" stroke-width="3.984" stroke-linecap="round" stroke-linejoin="round"/></g><g transform="matrix(.03344 0 0 .03344 15.993 6.415)" stroke-width="1.726"><rect width="178.248" height="178.248" x="-343.88" y="-117.183" rx="89.124" ry="89.124" fill="#fff"/><rect ry="84.075" rx="84.075" y="-112.135" x="-338.831" height="168.151" width="168.151" fill="#163e6a"/><path d="M388.188 136.714a251.475 251.475 0 0 0-251.475 251.474 251.475 251.475 0 0 0 251.475 251.475 251.475 251.475 0 0 0 251.476-251.475 251.475 251.475 0 0 0-251.476-251.474zm0 17.336a234.139 234.139 0 0 1 234.14 234.138 234.139 234.139 0 0 1-234.14 234.139 234.139 234.139 0 0 1-234.14-234.139 234.139 234.139 0 0 1 234.14-234.138z" transform="translate(-357.464 -130.768) scale(.26458)" opacity=".333" stroke="#000" stroke-width=".173" filter="url(#a)"/><path d="M-254.756-90.022a61.962 61.962 0 0 0-61.962 61.962 61.962 61.962 0 0 0 61.962 61.963 61.962 61.962 0 0 0 61.963-61.963 61.962 61.962 0 0 0-61.963-61.962zm-13.94 30.712h49.2c3.037 0 5.406 1.275 7.107 3.826 1.7 2.552 2.55 5.527 2.55 8.929 0 3.401-.85 6.378-2.55 8.93-1.701 2.55-4.07 3.826-7.107 3.826h-49.2c-3.644 0-5.467 1.822-5.467 5.466v21.867c0 3.037-1.276 5.406-3.827 7.107-2.55 1.7-5.527 2.551-8.928 2.551-3.402 0-6.378-.85-8.93-2.551-2.55-1.701-3.826-4.07-3.826-7.107v-21.867c0-12.877 5.163-21.927 15.489-27.15 4.252-2.066 9.415-3.341 15.49-3.827zm44.645 36.444c3.523 0 6.498 1.276 8.928 3.827 2.551 2.43 3.827 5.405 3.827 8.928 0 3.523-1.276 6.56-3.827 9.112-2.43 2.43-5.405 3.644-8.928 3.644-3.523 0-6.56-1.215-9.112-3.644-2.43-2.551-3.644-5.589-3.644-9.112 0-3.523 1.214-6.498 3.644-8.928 2.551-2.551 5.589-3.827 9.112-3.827z" fill="#fff"/></g></g></svg>